<svg width="20" height="25" viewBox="0 0 20 25" fill="none" xmlns="http://www.w3.org/2000/svg">
<path d="M17 2.9418H15V1.73579C15 1.41594 14.8946 1.10919 14.7071 0.883017C14.5196 0.656846 14.2652 0.529785 14 0.529785C13.7348 0.529785 13.4804 0.656846 13.2929 0.883017C13.1054 1.10919 13 1.41594 13 1.73579V2.9418H7V1.73579C7 1.41594 6.89464 1.10919 6.70711 0.883017C6.51957 0.656846 6.26522 0.529785 6 0.529785C5.73478 0.529785 5.48043 0.656846 5.29289 0.883017C5.10536 1.10919 5 1.41594 5 1.73579V2.9418H3C2.20435 2.9418 1.44129 3.32299 0.87868 4.0015C0.316071 4.68001 0 5.60027 0 6.55983V21.0319C0 21.9915 0.316071 22.9118 0.87868 23.5903C1.44129 24.2688 2.20435 24.65 3 24.65H17C17.7956 24.65 18.5587 24.2688 19.1213 23.5903C19.6839 22.9118 20 21.9915 20 21.0319V6.55983C20 5.60027 19.6839 4.68001 19.1213 4.0015C18.5587 3.32299 17.7956 2.9418 17 2.9418ZM18 21.0319C18 21.3518 17.8946 21.6585 17.7071 21.8847C17.5196 22.1109 17.2652 22.2379 17 22.2379H3C2.73478 22.2379 2.48043 22.1109 2.29289 21.8847C2.10536 21.6585 2 21.3518 2 21.0319V12.5899H18V21.0319ZM18 10.1779H2V6.55983C2 6.23997 2.10536 5.93322 2.29289 5.70705C2.48043 5.48088 2.73478 5.35382 3 5.35382H5V6.55983C5 6.87968 5.10536 7.18643 5.29289 7.41261C5.48043 7.63878 5.73478 7.76584 6 7.76584C6.26522 7.76584 6.51957 7.63878 6.70711 7.41261C6.89464 7.18643 7 6.87968 7 6.55983V5.35382H13V6.55983C13 6.87968 13.1054 7.18643 13.2929 7.41261C13.4804 7.63878 13.7348 7.76584 14 7.76584C14.2652 7.76584 14.5196 7.63878 14.7071 7.41261C14.8946 7.18643 15 6.87968 15 6.55983V5.35382H17C17.2652 5.35382 17.5196 5.48088 17.7071 5.70705C17.8946 5.93322 18 6.23997 18 6.55983V10.1779Z" fill="black"/>
</svg>
