<svg xmlns="http://www.w3.org/2000/svg" width="13" height="15" viewBox="0 0 13 15" fill="none">
  <path fill-rule="evenodd" clip-rule="evenodd" d="M7.49958 1.55172H5.49942C5.3668 1.55172 5.23962 1.60622 5.14584 1.70322C5.05207 1.80022 4.99938 1.93178 4.99938 2.06897V2.58621H7.99962V2.06897C7.99962 1.93178 7.94693 1.80022 7.85316 1.70322C7.75938 1.60622 7.6322 1.55172 7.49958 1.55172ZM9.49973 2.58621V2.06897C9.49973 1.52024 9.289 0.993992 8.9139 0.605986C8.5388 0.21798 8.03005 0 7.49958 0H5.49942C4.96895 0 4.4602 0.21798 4.0851 0.605986C3.71 0.993992 3.49927 1.52024 3.49927 2.06897V2.58621H0.750058C0.55113 2.58621 0.36035 2.66795 0.219687 2.81345C0.0790236 2.95895 0 3.1563 0 3.36207C0 3.56784 0.0790236 3.76518 0.219687 3.91069C0.36035 4.05619 0.55113 4.13793 0.750058 4.13793H1.06208L1.37911 12.0259C1.41136 12.826 1.74137 13.5822 2.30013 14.1365C2.8589 14.6908 3.60316 15.0002 4.37734 15H8.62266C9.39666 14.9999 10.1407 14.6904 10.6992 14.1361C11.2578 13.5819 11.5876 12.8258 11.6199 12.0259L11.9379 4.13793H12.2499C12.4489 4.13793 12.6396 4.05619 12.7803 3.91069C12.921 3.76518 13 3.56784 13 3.36207C13 3.1563 12.921 2.95895 12.7803 2.81345C12.6396 2.66795 12.4489 2.58621 12.2499 2.58621H9.49973ZM10.4358 4.13793H2.5632L2.87822 11.9607C2.89422 12.3608 3.05917 12.7391 3.33857 13.0163C3.61796 13.2936 3.99017 13.4484 4.37734 13.4483H8.62266C9.00966 13.4481 9.38161 13.2932 9.66079 13.016C9.93997 12.7388 10.1048 12.3607 10.1208 11.9607L10.4358 4.13793ZM4.24933 6.2069V11.3793C4.24933 11.5851 4.32835 11.7824 4.46901 11.9279C4.60968 12.0734 4.80046 12.1552 4.99938 12.1552C5.19831 12.1552 5.38909 12.0734 5.52976 11.9279C5.67042 11.7824 5.74944 11.5851 5.74944 11.3793V6.2069C5.74944 6.00113 5.67042 5.80378 5.52976 5.65828C5.38909 5.51278 5.19831 5.43103 4.99938 5.43103C4.80046 5.43103 4.60968 5.51278 4.46901 5.65828C4.32835 5.80378 4.24933 6.00113 4.24933 6.2069ZM7.99962 5.43103C8.19854 5.43103 8.38932 5.51278 8.52999 5.65828C8.67065 5.80378 8.74967 6.00113 8.74967 6.2069V11.3793C8.74967 11.5851 8.67065 11.7824 8.52999 11.9279C8.38932 12.0734 8.19854 12.1552 7.99962 12.1552C7.80069 12.1552 7.60991 12.0734 7.46924 11.9279C7.32858 11.7824 7.24956 11.5851 7.24956 11.3793V6.2069C7.24956 6.00113 7.32858 5.80378 7.46924 5.65828C7.60991 5.51278 7.80069 5.43103 7.99962 5.43103Z" fill="#FF453A"/>
</svg>