<svg width="31" height="31" viewBox="0 0 31 31" fill="none" xmlns="http://www.w3.org/2000/svg">
<path d="M20.3333 6.2915H29.0833M24.7083 1.9165V10.6665M27.625 15.7707V26.7082C27.625 27.4817 27.3177 28.2236 26.7707 28.7706C26.2237 29.3175 25.4819 29.6248 24.7083 29.6248H4.29167C3.51812 29.6248 2.77625 29.3175 2.22927 28.7706C1.68229 28.2236 1.375 27.4817 1.375 26.7082V6.2915C1.375 5.51796 1.68229 4.77609 2.22927 4.22911C2.77625 3.68213 3.51812 3.37484 4.29167 3.37484H15.2292" stroke="black" stroke-width="2" stroke-linecap="round" stroke-linejoin="round"/>
<path d="M27.625 20.8749L23.1246 16.3745C22.5776 15.8277 21.8359 15.5205 21.0625 15.5205C20.2891 15.5205 19.5474 15.8277 19.0004 16.3745L5.75 29.6249" stroke="black" stroke-width="2" stroke-linecap="round" stroke-linejoin="round"/>
<path d="M10.1252 15.0413C11.736 15.0413 13.0418 13.7355 13.0418 12.1247C13.0418 10.5138 11.736 9.20801 10.1252 9.20801C8.51433 9.20801 7.2085 10.5138 7.2085 12.1247C7.2085 13.7355 8.51433 15.0413 10.1252 15.0413Z" stroke="black" stroke-width="2" stroke-linecap="round" stroke-linejoin="round"/>
</svg>
