<svg width="10" height="12" viewBox="0 0 10 12" fill="none" xmlns="http://www.w3.org/2000/svg">
<path fill-rule="evenodd" clip-rule="evenodd" d="M5.76891 1.24138H4.23033C4.12831 1.24138 4.03048 1.28498 3.95834 1.36258C3.88621 1.44018 3.84568 1.54543 3.84568 1.65517V2.06897H6.15355V1.65517C6.15355 1.54543 6.11303 1.44018 6.04089 1.36258C5.96876 1.28498 5.87092 1.24138 5.76891 1.24138ZM7.30749 2.06897V1.65517C7.30749 1.21619 7.14539 0.795194 6.85685 0.484789C6.56831 0.174384 6.17696 0 5.76891 0H4.23033C3.82227 0 3.43092 0.174384 3.14239 0.484789C2.85385 0.795194 2.69175 1.21619 2.69175 1.65517V2.06897H0.576967C0.423946 2.06897 0.277192 2.13436 0.16899 2.25076C0.0607874 2.36716 0 2.52504 0 2.68966C0 2.85427 0.0607874 3.01215 0.16899 3.12855C0.277192 3.24495 0.423946 3.31034 0.576967 3.31034H0.816986L1.06085 9.62069C1.08566 10.2608 1.33952 10.8658 1.76933 11.3092C2.19915 11.7526 2.77167 12.0001 3.36718 12H6.63282C7.2282 11.9999 7.80052 11.7523 8.23017 11.3089C8.65983 10.8655 8.91357 10.2606 8.93838 9.62069L9.18301 3.31034H9.42303C9.57605 3.31034 9.72281 3.24495 9.83101 3.12855C9.93921 3.01215 10 2.85427 10 2.68966C10 2.52504 9.93921 2.36716 9.83101 2.25076C9.72281 2.13436 9.57605 2.06897 9.42303 2.06897H7.30749ZM8.02754 3.31034H1.97169L2.21402 9.56855C2.22633 9.88867 2.35321 10.1913 2.56813 10.4131C2.78305 10.6349 3.06936 10.7587 3.36718 10.7586H6.63282C6.93051 10.7585 7.21662 10.6346 7.43138 10.4128C7.64613 10.191 7.77291 9.88853 7.78521 9.56855L8.02754 3.31034ZM3.26871 4.96552V9.10345C3.26871 9.26807 3.3295 9.42594 3.4377 9.54234C3.54591 9.65874 3.69266 9.72414 3.84568 9.72414C3.9987 9.72414 4.14546 9.65874 4.25366 9.54234C4.36186 9.42594 4.42265 9.26807 4.42265 9.10345V4.96552C4.42265 4.8009 4.36186 4.64302 4.25366 4.52662C4.14546 4.41022 3.9987 4.34483 3.84568 4.34483C3.69266 4.34483 3.54591 4.41022 3.4377 4.52662C3.3295 4.64302 3.26871 4.8009 3.26871 4.96552ZM6.15355 4.34483C6.30657 4.34483 6.45332 4.41022 6.56153 4.52662C6.66973 4.64302 6.73052 4.8009 6.73052 4.96552V9.10345C6.73052 9.26807 6.66973 9.42594 6.56153 9.54234C6.45332 9.65874 6.30657 9.72414 6.15355 9.72414C6.00053 9.72414 5.85378 9.65874 5.74557 9.54234C5.63737 9.42594 5.57658 9.26807 5.57658 9.10345V4.96552C5.57658 4.8009 5.63737 4.64302 5.74557 4.52662C5.85378 4.41022 6.00053 4.34483 6.15355 4.34483Z" fill="#FF453A"/>
</svg>
