<svg width="171" height="94" viewBox="0 0 171 94" fill="none" xmlns="http://www.w3.org/2000/svg">
<path d="M39.9 42.625C39.45 42.925 38.55 43.525 37.95 43.525H35.55C34.8 43.525 33.9 42.925 33.3 42.625C31.8 41.5 30.75 39.85 30.6 37.975V35.725C30.45 35.725 29.55 35.8 29.25 35.8C28.2 35.725 27 34.75 26.175 34.15C25.8 34.75 25.575 35.575 25.2 36.175C24.45 37.525 22.8 37.975 21.45 37.975H20.625C20.625 37.975 20.1 37.9 19.95 37.9C19.875 37.9 18.9 37.525 18.75 37.525H18.675C18.45 40.075 17.475 41.65 15.525 43.075C14.4 43.9 13.575 44.5 12.3 44.8H9C9 44.8 6.975 44.125 6.075 43.9C5.025 43.525 3.825 43.075 2.85 42.325C2.025 41.65 0.9 39.325 0.9 38.125V37.075C0.9 33.925 1.5 31.825 3.9 29.8C4.8 29.05 5.85 28.675 6.825 28.45V28.225C6.825 28.075 6.45 27.475 6.45 27.4C6.225 26.875 6.375 26.65 6.375 26.05C6.375 24.25 6.975 22.3 8.55 21.325C8.625 21.325 9.15 21.1 9.225 20.95C9.375 20.875 9.6 20.875 9.75 20.725C9 19.525 8.775 18.1 8.775 16.675V15.4C8.775 14.725 9.15 13.975 9.375 13.375C9.375 13.3 9.75 12.775 9.75 12.625C10.125 12.025 10.725 11.425 11.175 11.125C12.9 9.55 15.375 9.025 17.55 8.65V6.475C17.55 5.575 18.075 4.675 18.525 3.85C19.875 1.45 21.9 0.249999 24.6 0.249999C29.85 0.249999 32.55 4.975 31.65 9.775C33.9 9.55 35.475 9.7 36.75 11.65C36.9 11.875 37.875 13.3 37.2 15.475C39.825 16.075 40.65 16.75 42.225 19.675C43.05 21.1 43.05 22.675 42.525 24.4C44.4 24.475 45.825 24.7 47.4 25.675C49.2 26.875 49.95 29.2 49.95 31.225C49.95 32.425 49.2 33.4 48.6 34.375V34.6C49.8 35.5 51.225 37.075 51.375 38.575V41.05C51 42.85 49.65 44.5 47.85 45.025C46.875 45.25 45.825 45.25 44.85 45.25H43.5L43.125 45.1L41.7 44.425C40.95 44.05 40.35 43.225 39.9 42.625ZM24.075 23.425C24.075 24.025 24.075 24.55 25.35 24.55C26.4 24.55 26.925 24.025 27.525 23.425C28.05 23.05 27.75 22.6 27.75 22.3C27.75 20.95 26.925 20.125 26.025 18.85L25.35 18.25C24.9 18.775 24.9 19 24.6 19.6C24.525 20.125 24.075 22.6 24.075 22.9V23.425Z" fill="#E85454"/>
<path d="M66.6023 48.325C64.5773 48.325 63.0773 47.125 61.7273 45.775C61.2773 45.85 61.0523 45.85 60.4523 45.85C58.6523 45.85 56.9273 45.175 56.9273 43C56.9273 41.575 57.6773 40.9 58.5773 39.775L58.3523 39.55C57.8273 39.1 56.9273 38.2 56.7773 36.25C56.7773 34.9 57.0023 34 57.9773 32.875C57.3023 31.825 56.5523 31.75 56.5523 29.95C56.5523 28.45 56.7773 27.775 57.8273 26.725C56.4773 25.45 56.0273 24.55 56.0273 22.9C56.0273 21.4 56.4773 20.5 57.2273 19.375C56.3273 18.55 56.0273 17.725 56.0273 16.45C56.0273 15.325 56.4023 14.425 57.2273 13.45C56.4023 12.325 56.0273 11.2 56.0273 9.925C56.0273 7.675 56.7023 6.475 58.4273 5.05C58.3523 4.675 58.2773 4.3 58.2773 4C58.2773 1.15 61.3523 0.249999 62.9273 0.249999C65.3273 0.249999 67.5023 1.825 67.5023 4.375C67.5023 4.9 67.5023 5.35 67.4273 5.65C69.4523 6.4 70.7273 7 70.7273 9.4C70.7273 11.2 70.1273 12.325 68.7023 13.3C69.8273 14.35 70.1273 15.325 70.1273 16.825C70.1273 18.25 69.2273 19.15 68.3273 20.2C68.7773 20.575 69.0773 20.65 69.4523 21.025C69.7523 20.425 70.1273 19.3 72.3773 19.3H74.4773C74.8523 16.375 76.8023 14.125 79.8773 14.125C80.9273 14.125 82.0523 14.275 83.2523 15.25C84.3773 14.35 85.5023 13.975 87.2273 13.975C90.2273 13.975 91.2023 16.375 91.2023 18.025C91.2023 18.55 90.9023 18.925 90.8273 19.45C91.7273 20.725 92.1023 21.475 92.1023 22.9C92.1023 24.85 90.2273 26.8 88.0523 26.8C87.3773 26.8 87.0773 26.8 86.4023 26.5C85.5023 28.3 84.3023 29.05 82.2023 29.05C80.8523 29.05 79.5023 29.125 78.6023 27.925L77.8523 28.6L77.7773 28.675L77.5523 28.825C78.0023 29.275 78.3773 29.725 78.8273 30.1C79.5023 29.95 80.1773 29.875 81.0023 29.875C82.8773 29.875 84.6023 30.625 85.6523 31.9C86.2523 32.65 86.7023 33.55 86.7773 34.675C88.9523 34.975 91.4273 36.25 91.4273 38.95C91.4273 41.2 89.8523 42.4 88.0523 42.85C88.0523 43.075 88.0523 43.225 88.1273 43.45C88.2023 43.75 88.2773 43.975 88.2773 44.35C88.2773 46.15 87.2273 47.725 85.2773 47.725C84.9023 47.725 84.6773 47.65 84.3773 47.5C84.0773 47.35 83.7773 47.2 83.6273 47.2C83.6273 47.2 83.2523 47.35 83.1023 47.425C82.8023 47.575 82.3523 47.725 81.9023 47.725C79.6523 47.725 78.6773 46.225 78.2273 44.275H77.9273C77.6273 44.35 77.0273 44.35 76.8023 44.35C74.1023 44.35 72.7523 41.5 72.6773 39.175H71.6273C71.8523 42.7 71.4773 43 70.3523 43.6V45.1C70.1273 46.75 68.1023 48.325 66.6023 48.325Z" fill="#D6D452"/>
<path d="M117.525 46.15C114.825 46.15 112.5 44.575 110.475 42.85C109.65 42.85 108.975 43.225 108 43.225C103.425 43.225 100.125 39.325 100.125 34.825C100.125 34.375 100.275 34 100.35 33.475C97.95 32.575 96.225 30.25 96.225 27.7C96.225 24.625 97.5 22.15 100.125 21.025C98.85 14.425 104.4 10.6 109.65 12.025C111.825 7.6 115.575 7.675 116.625 7.675C121.5 7.675 123.675 10.15 124.65 12.625C129.075 12.625 133.2 13.975 133.2 19.375C133.2 20.275 132.975 21.025 132.75 21.7C132.525 22.375 132.3 22.975 132.3 23.575C132.3 23.8 132.825 24.1 133.275 24.55C134.55 25.6 136.425 27.325 136.425 29.65C136.425 32.875 134.1 34 131.7 35.275C132 36.025 132.15 36.7 132.15 37.375C132.225 40.6 129.225 42.55 125.85 42.025C123.45 44.8 121.2 46.15 117.525 46.15ZM116.4 35.5C117.15 36.4 118.35 36.775 119.475 36.775C121.35 36.625 121.8 35.875 121.8 35.05C121.8 34.45 121.8 34.15 121.2 34.15C120.825 34.15 120.6 34.525 120.375 34.75C120.075 35.05 119.85 35.275 119.475 35.275C117.525 35.275 117.3 33.625 117.3 31.975V30.775C117.975 30.475 118.2 29.875 118.2 29.425C118.2 28.9 117.6 28.3 116.625 28.3C115.575 28.3 114.675 28.6 114.675 29.65C114.675 30.1 115.05 30.475 115.275 30.775V33.925C115.275 34.45 113.55 34.825 113.175 34.825C113.025 34.825 112.8 34.75 112.725 34.6C112.575 34.45 112.35 34.15 112.05 34.15C111.45 34.15 111.45 34.525 111.45 34.825C111.45 35.875 112.2 36.625 113.025 36.625C114.45 36.625 115.875 35.95 116.4 35.5ZM109.65 24.175C109.65 25.15 109.95 25.45 111 25.45C111.825 25.45 112.125 25.15 112.125 24.175C112.125 23.425 111.825 23.125 111 23.125C109.95 23.125 109.65 23.425 109.65 24.175ZM119.7 24.775C119.7 25.375 120.225 25.825 120.975 25.825C121.725 25.825 122.025 25.075 122.025 24.625C122.025 23.875 121.425 23.575 120.975 23.575C120 23.575 119.7 23.875 119.7 24.775Z" fill="#E1A264"/>
<path d="M10.8 79.725C8.325 79.725 6.9 78 6.075 76.05C3.6 76.35 2.1 73.5 2.1 71.475C2.1 70.05 2.55 68.85 3.15 67.65C1.125 66.525 1.275 65.1 1.2 64.725C1.125 63.225 1.8 61.875 2.7 60.675C2.175 59.7 1.425 58.35 1.425 57.15C1.425 54.15 3.45 53.025 5.775 52.125C5.85 52.125 6 52.05 6 52.05C5.85 51.525 5.775 51.075 5.775 50.625C5.625 46.2 9.525 43.65 11.025 43.65C14.625 42.825 15.6 44.475 16.2 44.7C17.775 43.125 19.725 42.375 22.275 42.375C25.5 42.375 27.75 45.075 28.875 47.925C30 46.35 31.575 45.375 33.75 45.375C34.2 45.375 34.575 45.525 35.1 45.6C36.45 43.65 38.25 43.05 40.725 43.05C43.8 43.05 46.425 44.475 47.175 47.7C48.975 47.025 49.725 46.725 51.375 46.725C54.375 46.725 56.175 48.525 56.175 51.675C56.175 52.2 56.1 52.725 55.95 53.025C55.875 53.25 55.725 53.625 55.725 53.925C57.3 54.075 59.625 54.9 59.625 56.925C59.625 58.275 58.725 59.25 57.825 60.225C60.075 61.425 60.975 63.375 60.975 65.85C60.975 67.875 60.6 69.9 58.575 71.025C58.95 71.85 59.175 72.975 59.175 73.875C59.175 76.275 57.825 79.5 55.05 79.5C53.1 79.5 51.9 78.525 51.375 78.225C51 78.45 50.625 79.05 48.375 79.05C45.975 79.05 43.8 78.15 43.8 75.375C43.8 74.025 44.475 72.225 45.075 71.025C42.45 69.45 41.175 68.4 41.175 65.175C41.175 63.675 41.175 62.925 41.7 61.725C40.5 61.725 39.825 61.425 39.075 60.75L38.55 61.35C38.25 61.8 37.05 63.15 36.525 63.525C36.75 64.125 37.05 64.65 37.275 65.025C37.725 65.925 38.325 66.825 38.325 68.025C38.325 70.35 36.975 72.45 35.1 73.575C35.025 75.75 33.6 77.55 31.2 77.55C26.175 77.55 24 74.7 24 71.7C24 69.9 24.6 69.15 24.675 69.15C23.925 67.95 23.4 67.2 23.4 65.625C23.4 64.8 23.85 63.975 24.075 63.15L22.575 62.1C21.825 61.5 21.3 60.675 20.925 59.925C19.95 60.525 19.5 60.45 18.45 60.45C19.425 62.775 19.8 65.475 17.55 67.725C18.375 69.075 18.825 69.9 18.825 71.475C18.825 73.725 17.1 75.15 15.3 75.6C14.7 78.525 13.425 79.725 10.8 79.725Z" fill="#FF7F00"/>
<path d="M66.6756 76.8C66.6756 75.75 66.9756 75.3 67.5006 74.475C66.1506 72.675 65.5506 71.625 65.5506 70.5C65.5506 69.375 66.3756 67.875 67.3506 67.05C66.2256 65.55 65.4756 63.6 65.4006 61.65C65.3256 59.7 65.8506 57.675 67.2756 56.175C66.6756 55.65 66.0756 54.825 66.0006 53.625C65.7756 49.875 70.5756 48.6 73.5756 48.6C75.9756 48.6 77.9256 49.5 78.1506 51.75C79.7256 52.125 81.1506 52.725 81.1506 54.75C81.1506 56.025 80.1756 57.075 79.2756 58.275C80.7756 58.875 81.1506 60.075 81.1506 61.35C81.1506 62.775 80.3256 63.75 79.5006 64.95C79.5006 65.1 79.8006 65.475 80.4006 65.85C81.3006 66.45 82.6506 67.125 82.6506 69.825C82.6506 72.45 81.0756 73.275 80.1006 73.725C80.4006 74.475 80.7756 75.15 80.7756 76.05C80.7756 77.7 79.6506 79.275 77.4756 79.275C75.9756 79.275 74.7006 78.9 73.5756 78.375C72.2256 78.975 71.2506 79.275 69.9006 79.275C68.1006 79.275 66.6756 78.45 66.6756 76.8ZM75.6006 46.35C73.8756 46.35 72.9006 45.825 71.8506 44.55C71.4006 44.85 70.3506 45.375 69.1506 45.375C67.1256 45.375 65.1756 43.425 65.1756 41.475C65.1756 40.2 65.6256 39.525 66.4506 38.475C66.1506 37.8 65.7756 36.975 65.7756 36.3C65.7756 33.75 67.8756 31.95 70.2756 31.95C71.7006 31.95 73.2006 32.175 74.0256 33.675C74.8506 33.225 75.7506 32.925 76.8756 32.925C79.4256 32.925 81.3756 34.5 81.3756 36.975C81.3756 39.225 80.5506 40.125 78.9006 40.8C79.2006 41.4 79.5006 42.075 79.5006 42.675C79.5006 44.625 78.0006 46.35 75.6006 46.35Z" fill="#298D62"/>
<path d="M95.9197 78.9C92.9947 78.9 91.0447 77.175 91.1947 74.325C88.9447 73.2 87.4447 71.85 87.4447 69.15C87.4447 67.65 88.1197 66.3 88.8697 64.8C87.9697 63.9 87.2197 62.625 87.2197 61.35C87.2197 59.55 87.8947 57.975 88.8697 56.7C88.4197 55.8 88.1197 54.825 88.0447 53.925C87.8197 51.3 89.1697 48.975 92.3197 48.375C92.9197 48.225 93.5947 48.3 94.1947 48.3C93.5197 42.525 99.2197 40.05 103.12 40.05C105.22 40.05 108.07 40.575 109.495 42.525C110.545 41.85 112.195 41.175 113.47 41.175C119.095 41.175 120.895 45.9 121.12 50.55C124.645 51.375 127.645 53.475 127.645 57.375C127.645 60.375 126.595 60.9 125.92 61.725C128.47 63.225 129.37 65.1 129.37 68.1C129.37 70.95 127.345 71.625 126.295 71.925C125.995 72 125.845 72 125.845 72.225C125.845 72.3 125.92 72.6 126.07 73.05L126.295 74.4C126.295 77.325 123.37 78.9 120.67 78.9C119.92 78.9 118.945 78.9 116.47 76.5C113.77 76.95 111.595 75.15 111.595 72.45C111.595 70.875 111.97 69.6 112.945 68.325L112.12 67.35C111.22 66.45 110.245 65.25 110.245 63.675C110.245 62.25 110.695 61.125 111.295 59.925C110.995 59.775 110.695 59.7 110.47 59.55C109.57 59.1 108.97 58.8 107.92 57.525C107.545 57 107.545 56.85 107.395 56.475C107.32 56.175 107.245 56.025 107.095 55.8C105.895 56.325 104.845 56.925 103.42 57C103.57 57.3 103.72 57.75 103.87 57.975C104.32 58.95 104.845 60.225 104.845 61.575C104.845 62.925 104.845 64.2 104.395 65.325C104.32 65.7 103.345 67.05 103.345 67.05C103.345 67.5 103.495 68.1 103.72 68.55C103.945 69.075 104.17 69.675 104.17 70.425C104.17 72.6 103.27 74.4 101.17 75L100.12 75.225L99.8947 75.9C99.6697 77.1 99.1447 78.9 95.9197 78.9Z" fill="#39AB94"/>
<path d="M147.904 91.35L147.379 90.825C146.329 91.5 145.129 91.875 143.854 91.95C141.379 92.025 138.229 90.825 138.229 87.675C138.229 85.875 139.504 85.05 139.804 84.825C139.504 84.075 139.279 83.325 139.279 82.35C138.904 79.425 143.254 78.225 145.279 78.225C147.454 78.225 148.879 79.425 150.604 80.625C151.054 80.025 151.579 79.2 152.479 78.3C153.079 77.7 153.829 77.325 154.654 77.025C154.054 76.275 153.679 75.075 153.529 74.25C151.804 75.6 148.429 76.35 146.179 76.35C142.504 76.35 137.479 75.3 137.929 70.275C134.554 69.975 132.079 68.025 132.079 64.125C132.079 62.4 132.604 60.975 133.279 59.475C132.904 58.2 132.754 57.675 132.754 56.925C132.754 53.925 134.554 51.525 137.629 51.075C137.929 46.875 139.129 45.3 143.554 44.775C145.129 44.775 145.804 45.225 147.154 46.05C148.954 44.25 151.129 43.35 153.679 43.35C156.829 43.35 158.629 45.375 159.529 47.475C163.354 47.475 166.879 49.05 167.329 53.55C167.554 55.275 167.404 57.075 166.729 58.875C169.279 60.15 170.029 62.475 170.104 65.175C170.179 67.125 168.904 68.775 167.554 70.35C168.604 71.4 169.654 72.6 169.654 74.25C169.654 76.8 168.829 78.075 166.879 79.5C167.254 80.7 167.554 82.125 167.554 83.475C167.554 87.15 164.929 89.85 161.104 89.925C159.454 89.85 159.154 89.775 158.854 89.775C158.029 91.2 155.404 93.225 152.704 93.225C149.329 93.15 148.729 92.175 147.904 91.35ZM148.129 60.3V60.975C148.579 61.575 149.779 61.8 150.604 61.8C151.729 61.8 152.179 60.75 152.179 59.775C152.179 59.175 151.804 58.725 151.579 58.35H150.979C149.104 58.35 148.129 58.5 148.129 60.3Z" fill="#CD4C4C"/>
</svg>
