<svg width="37" height="40" viewBox="0 0 37 40" fill="none" xmlns="http://www.w3.org/2000/svg">
<path id="Vector" d="M29.5 26.6316V32.3158M29.5 32.3158V38M29.5 32.3158H35M29.5 32.3158H24M31.3333 13.3684V13.0425C31.3331 12.0376 30.9467 11.0739 30.259 10.3634L23.241 3.11032C22.5535 2.3996 21.621 2.00021 20.6487 2H20.3333M31.3333 13.3684H24C23.0275 13.3684 22.0949 12.9692 21.4073 12.2585C20.7196 11.5478 20.3333 10.584 20.3333 9.57895V2M31.3333 13.3684V19.0526M20.3333 2H5.66667C4.69421 2 3.76158 2.39925 3.07394 3.10991C2.38631 3.82058 2 4.78444 2 5.78947V32.3158C2 33.3208 2.38631 34.2847 3.07394 34.9954C3.76158 35.706 4.69421 36.1053 5.66667 36.1053H16.6667" stroke="white" stroke-width="3" stroke-linecap="round" stroke-linejoin="round"/>
</svg>
