<svg width="22" height="26" viewBox="0 0 22 26" fill="none" xmlns="http://www.w3.org/2000/svg">
<path fill-rule="evenodd" clip-rule="evenodd" d="M19.5001 0.5C20.1308 0.499801 20.7383 0.738008 21.2008 1.16687C21.6632 1.59573 21.9465 2.18356 21.9938 2.8125L22.0001 3V23C22.0003 23.6307 21.7621 24.2382 21.3332 24.7007C20.9043 25.1632 20.3165 25.4464 19.6876 25.4938L19.5001 25.5H4.50008C3.86936 25.5002 3.26187 25.262 2.7994 24.8331C2.33692 24.4043 2.05363 23.8164 2.00633 23.1875L2.00008 23V21.75C1.68148 21.7496 1.37504 21.6277 1.14337 21.4089C0.9117 21.1902 0.772286 20.8913 0.753615 20.5733C0.734943 20.2552 0.838423 19.942 1.04291 19.6977C1.2474 19.4534 1.53746 19.2964 1.85383 19.2587L2.00008 19.25V16.75C1.68148 16.7496 1.37504 16.6277 1.14337 16.4089C0.9117 16.1902 0.772286 15.8913 0.753615 15.5733C0.734943 15.2552 0.838423 14.942 1.04291 14.6977C1.2474 14.4534 1.53746 14.2964 1.85383 14.2587L2.00008 14.25V11.75C1.68148 11.7496 1.37504 11.6277 1.14337 11.4089C0.9117 11.1902 0.772286 10.8913 0.753615 10.5733C0.734943 10.2552 0.838423 9.94203 1.04291 9.69771C1.2474 9.45339 1.53746 9.29638 1.85383 9.25875L2.00008 9.25V6.75C1.68148 6.74965 1.37504 6.62765 1.14337 6.40894C0.9117 6.19023 0.772286 5.89131 0.753615 5.57326C0.734943 5.2552 0.838423 4.94203 1.04291 4.69771C1.2474 4.45339 1.53746 4.29638 1.85383 4.25875L2.00008 4.25V3C1.99988 2.36928 2.23809 1.76179 2.66695 1.29932C3.09581 0.836838 3.68364 0.553554 4.31258 0.50625L4.50008 0.5H19.5001ZM19.5001 3H4.50008V23H19.5001V3ZM16.3751 5.5C16.8412 5.50002 17.2906 5.67365 17.6356 5.98702C17.9806 6.3004 18.1966 6.73105 18.2413 7.195L18.2501 7.375V9.875C18.2501 10.3411 18.0764 10.7905 17.7631 11.1355C17.4497 11.4806 17.019 11.6965 16.5551 11.7413L16.3751 11.75H7.62508C7.15898 11.75 6.70959 11.5764 6.36456 11.263C6.01952 10.9496 5.80358 10.519 5.75883 10.055L5.75008 9.875V7.375C5.7501 6.9089 5.92373 6.45951 6.2371 6.11448C6.55048 5.76944 6.98113 5.5535 7.44508 5.50875L7.62508 5.5H16.3751ZM15.7501 8H8.25008V9.25H15.7501V8Z" fill="#FF7F00"/>
</svg>
