<svg width="110" height="110" viewBox="0 0 110 110" fill="none" xmlns="http://www.w3.org/2000/svg">
<circle cx="55" cy="55" r="54.35" fill="white" stroke="#BBB4B4" stroke-width="1.3"/>
<path d="M74.2 78.5C73.6 78.9 72.4 79.7 71.6 79.7H68.4C67.4 79.7 66.2 78.9 65.4 78.5C63.4 77 62 74.8 61.8 72.3V69.3C61.6 69.3 60.4 69.4 60 69.4C58.6 69.3 57 68 55.9 67.2C55.4 68 55.1 69.1 54.6 69.9C53.6 71.7 51.4 72.3 49.6 72.3H48.5C48.5 72.3 47.8 72.2 47.6 72.2C47.5 72.2 46.2 71.7 46 71.7H45.9C45.6 75.1 44.3 77.2 41.7 79.1C40.2 80.2 39.1 81 37.4 81.4H33C33 81.4 30.3 80.5 29.1 80.2C27.7 79.7 26.1 79.1 24.8 78.1C23.7 77.2 22.2 74.1 22.2 72.5V71.1C22.2 66.9 23 64.1 26.2 61.4C27.4 60.4 28.8 59.9 30.1 59.6V59.3C30.1 59.1 29.6 58.3 29.6 58.2C29.3 57.5 29.5 57.2 29.5 56.4C29.5 54 30.3 51.4 32.4 50.1C32.5 50.1 33.2 49.8 33.3 49.6C33.5 49.5 33.8 49.5 34 49.3C33 47.7 32.7 45.8 32.7 43.9V42.2C32.7 41.3 33.2 40.3 33.5 39.5C33.5 39.4 34 38.7 34 38.5C34.5 37.7 35.3 36.9 35.9 36.5C38.2 34.4 41.5 33.7 44.4 33.2V30.3C44.4 29.1 45.1 27.9 45.7 26.8C47.5 23.6 50.2 22 53.8 22C60.8 22 64.4 28.3 63.2 34.7C66.2 34.4 68.3 34.6 70 37.2C70.2 37.5 71.5 39.4 70.6 42.3C74.1 43.1 75.2 44 77.3 47.9C78.4 49.8 78.4 51.9 77.7 54.2C80.2 54.3 82.1 54.6 84.2 55.9C86.6 57.5 87.6 60.6 87.6 63.3C87.6 64.9 86.6 66.2 85.8 67.5V67.8C87.4 69 89.3 71.1 89.5 73.1V76.4C89 78.8 87.2 81 84.8 81.7C83.5 82 82.1 82 80.8 82H79L78.5 81.8L76.6 80.9C75.6 80.4 74.8 79.3 74.2 78.5ZM53.1 52.9C53.1 53.7 53.1 54.4 54.8 54.4C56.2 54.4 56.9 53.7 57.7 52.9C58.4 52.4 58 51.8 58 51.4C58 49.6 56.9 48.5 55.7 46.8L54.8 46C54.2 46.7 54.2 47 53.8 47.8C53.7 48.5 53.1 51.8 53.1 52.2V52.9Z" fill="#E85454"/>
</svg>
