<svg width="31" height="30" viewBox="0 0 31 30" fill="none" xmlns="http://www.w3.org/2000/svg">
<path d="M26.0694 4.4306L29.2119 5.05873C29.3806 5.09248 29.5194 5.21623 29.5681 5.3831C29.5927 5.46417 29.5949 5.55039 29.5745 5.63259C29.554 5.7148 29.5116 5.78993 29.4519 5.84998L26.8775 8.42623C26.569 8.73297 26.1519 8.90549 25.7169 8.90623H23.5813L18.2187 14.2706C18.3211 14.6569 18.3399 15.0606 18.2739 15.4547C18.208 15.8488 18.0588 16.2244 17.8364 16.5563C17.6139 16.8883 17.3233 17.1691 16.9838 17.3799C16.6443 17.5907 16.2638 17.7268 15.8677 17.779C15.4715 17.8313 15.0687 17.7985 14.6862 17.6829C14.3037 17.5672 13.9502 17.3714 13.6493 17.1085C13.3484 16.8455 13.107 16.5215 12.9411 16.1579C12.7753 15.7943 12.6888 15.3996 12.6875 15C12.6874 14.5684 12.7866 14.1426 12.9775 13.7555C13.1684 13.3684 13.4458 13.0305 13.7882 12.7678C14.1307 12.5051 14.5289 12.3248 14.9523 12.2407C15.3756 12.1567 15.8126 12.1712 16.2294 12.2831L21.5938 6.91685V4.78498C21.5938 4.34998 21.7662 3.93185 22.0737 3.62435L24.65 1.0481C24.7101 0.988346 24.7852 0.945979 24.8674 0.92551C24.9496 0.90504 25.0358 0.907232 25.1169 0.931854C25.2837 0.980604 25.4075 1.11935 25.4413 1.2881L26.0694 4.4306Z" fill="black"/>
<path d="M4.2498 15C4.25173 16.6087 4.59864 18.1982 5.26712 19.6614C5.9356 21.1246 6.91011 22.4275 8.12492 23.482C9.33972 24.5366 10.7666 25.3184 12.3092 25.7746C13.8518 26.2308 15.4743 26.3509 17.0673 26.1268C18.6603 25.9026 20.1867 25.3395 21.5435 24.4752C22.9004 23.611 24.0561 22.4659 24.9327 21.117C25.8093 19.7682 26.3865 18.247 26.6252 16.6562C26.864 15.0653 26.7587 13.4417 26.3167 11.895C26.2546 11.7143 26.23 11.5228 26.2443 11.3323C26.2585 11.1418 26.3115 10.9561 26.3998 10.7867C26.4881 10.6173 26.61 10.4676 26.758 10.3468C26.906 10.2259 27.077 10.1365 27.2607 10.0839C27.4444 10.0313 27.6369 10.0166 27.8264 10.0407C28.016 10.0649 28.1986 10.1274 28.3632 10.2244C28.5278 10.3213 28.671 10.4508 28.784 10.6049C28.897 10.759 28.9774 10.9345 29.0204 11.1206C29.8764 14.116 29.7138 17.3108 28.5581 20.2037C27.4025 23.0967 25.3191 25.5242 22.635 27.1054C19.9508 28.6865 16.8176 29.3319 13.7271 28.9402C10.6365 28.5486 7.76344 27.142 5.55855 24.9412C3.35607 22.7369 1.94801 19.8635 1.55544 16.7723C1.16287 13.681 1.80802 10.5469 3.3896 7.862C4.97118 5.17711 7.39963 3.09348 10.2937 1.93825C13.1877 0.783026 16.3835 0.621616 19.3792 1.47937C19.7359 1.58364 20.0368 1.82487 20.2162 2.15034C20.3956 2.47581 20.4388 2.85905 20.3365 3.21632C20.2342 3.57359 19.9946 3.87583 19.6701 4.05698C19.3456 4.23814 18.9626 4.28349 18.6048 4.18312C16.9296 3.70208 15.1656 3.61684 13.4518 3.93412C11.7381 4.25139 10.1215 4.96251 8.72954 6.01137C7.3376 7.06024 6.20839 8.41816 5.43098 9.97805C4.65356 11.5379 4.24921 13.2571 4.2498 15Z" fill="black"/>
<path d="M9.87492 15C9.87503 16.0249 10.1549 17.0302 10.6845 17.9077C11.214 18.7851 11.9731 19.5014 12.8797 19.9791C13.7864 20.4569 14.8063 20.678 15.8295 20.6187C16.8526 20.5594 17.8401 20.2218 18.6855 19.6425C19.5308 19.0617 20.2012 18.2609 20.6242 17.3266C21.0472 16.3924 21.2067 15.3602 21.0855 14.3419C21.0528 14.0948 21.0865 13.8434 21.1831 13.6136C21.2798 13.3838 21.436 13.184 21.6356 13.0346C21.8352 12.8852 22.071 12.7918 22.3187 12.7638C22.5664 12.7359 22.8171 12.7745 23.0449 12.8756C23.2727 12.9755 23.47 13.1339 23.6165 13.3348C23.7631 13.5358 23.8538 13.772 23.8793 14.0194C24.083 15.7596 23.74 17.52 22.8978 19.0564C22.0555 20.5928 20.7559 21.8288 19.1793 22.5931C17.6027 23.3573 15.8273 23.6117 14.0995 23.3211C12.3717 23.0305 10.7772 22.2092 9.53735 20.9712C8.29751 19.7333 7.4738 18.14 7.18055 16.4127C6.8873 14.6853 7.13907 12.9095 7.90089 11.3318C8.66272 9.75397 9.89682 8.45249 11.4319 7.60794C12.967 6.76339 14.7269 6.41766 16.4674 6.61875C16.6538 6.63604 16.8348 6.69037 16.9999 6.77853C17.165 6.8667 17.3109 6.98693 17.4289 7.13219C17.5469 7.27745 17.6348 7.44481 17.6873 7.62446C17.7398 7.80411 17.7559 7.99244 17.7347 8.1784C17.7135 8.36436 17.6553 8.54421 17.5637 8.70742C17.4721 8.87062 17.3488 9.01389 17.2011 9.12883C17.0534 9.24377 16.8842 9.32807 16.7035 9.37678C16.5228 9.42549 16.3341 9.43764 16.1487 9.4125C15.3605 9.32099 14.5619 9.39726 13.8054 9.63628C13.0488 9.87531 12.3513 10.2717 11.7588 10.7994C11.1663 11.3271 10.6921 11.9742 10.3675 12.6981C10.0428 13.4221 9.87491 14.2066 9.87492 15Z" fill="black"/>
</svg>
