<svg width="110" height="110" viewBox="0 0 110 110" fill="none" xmlns="http://www.w3.org/2000/svg">
<circle cx="55" cy="55" r="54.35" fill="white" stroke="#BBB4B4" stroke-width="1.3"/>
<path d="M40.1 81.2C36.2 81.2 33.6 78.9 33.8 75.1C30.8 73.6 28.8 71.8 28.8 68.2C28.8 66.2 29.7 64.4 30.7 62.4C29.5 61.2 28.5 59.5 28.5 57.8C28.5 55.4 29.4 53.3 30.7 51.6C30.1 50.4 29.7 49.1 29.6 47.9C29.3 44.4 31.1 41.3 35.3 40.5C36.1 40.3 37 40.4 37.8 40.4C36.9 32.7 44.5 29.4 49.7 29.4C52.5 29.4 56.3 30.1 58.2 32.7C59.6 31.8 61.8 30.9 63.5 30.9C71 30.9 73.4 37.2 73.7 43.4C78.4 44.5 82.4 47.3 82.4 52.5C82.4 56.5 81 57.2 80.1 58.3C83.5 60.3 84.7 62.8 84.7 66.8C84.7 70.6 82 71.5 80.6 71.9C80.2 72 80 72 80 72.3C80 72.4 80.1 72.8 80.3 73.4L80.6 75.2C80.6 79.1 76.7 81.2 73.1 81.2C72.1 81.2 70.8 81.2 67.5 78C63.9 78.6 61 76.2 61 72.6C61 70.5 61.5 68.8 62.8 67.1L61.7 65.8C60.5 64.6 59.2 63 59.2 60.9C59.2 59 59.8 57.5 60.6 55.9C60.2 55.7 59.8 55.6 59.5 55.4C58.3 54.8 57.5 54.4 56.1 52.7C55.6 52 55.6 51.8 55.4 51.3C55.3 50.9 55.2 50.7 55 50.4C53.4 51.1 52 51.9 50.1 52C50.3 52.4 50.5 53 50.7 53.3C51.3 54.6 52 56.3 52 58.1C52 59.9 52 61.6 51.4 63.1C51.3 63.6 50 65.4 50 65.4C50 66 50.2 66.8 50.5 67.4C50.8 68.1 51.1 68.9 51.1 69.9C51.1 72.8 49.9 75.2 47.1 76L45.7 76.3L45.4 77.2C45.1 78.8 44.4 81.2 40.1 81.2Z" fill="#D9D9D9"/>
</svg>
