<svg width="110" height="110" viewBox="0 0 110 110" fill="none" xmlns="http://www.w3.org/2000/svg">
<circle cx="55" cy="55" r="54.35" fill="white" stroke="#BBB4B4" stroke-width="1.3"/>
<path d="M73.2 77.5C72.6 77.9 71.4 78.7 70.6 78.7H67.4C66.4 78.7 65.2 77.9 64.4 77.5C62.4 76 61 73.8 60.8 71.3V68.3C60.6 68.3 59.4 68.4 59 68.4C57.6 68.3 56 67 54.9 66.2C54.4 67 54.1 68.1 53.6 68.9C52.6 70.7 50.4 71.3 48.6 71.3H47.5C47.5 71.3 46.8 71.2 46.6 71.2C46.5 71.2 45.2 70.7 45 70.7H44.9C44.6 74.1 43.3 76.2 40.7 78.1C39.2 79.2 38.1 80 36.4 80.4H32C32 80.4 29.3 79.5 28.1 79.2C26.7 78.7 25.1 78.1 23.8 77.1C22.7 76.2 21.2 73.1 21.2 71.5V70.1C21.2 65.9 22 63.1 25.2 60.4C26.4 59.4 27.8 58.9 29.1 58.6V58.3C29.1 58.1 28.6 57.3 28.6 57.2C28.3 56.5 28.5 56.2 28.5 55.4C28.5 53 29.3 50.4 31.4 49.1C31.5 49.1 32.2 48.8 32.3 48.6C32.5 48.5 32.8 48.5 33 48.3C32 46.7 31.7 44.8 31.7 42.9V41.2C31.7 40.3 32.2 39.3 32.5 38.5C32.5 38.4 33 37.7 33 37.5C33.5 36.7 34.3 35.9 34.9 35.5C37.2 33.4 40.5 32.7 43.4 32.2V29.3C43.4 28.1 44.1 26.9 44.7 25.8C46.5 22.6 49.2 21 52.8 21C59.8 21 63.4 27.3 62.2 33.7C65.2 33.4 67.3 33.6 69 36.2C69.2 36.5 70.5 38.4 69.6 41.3C73.1 42.1 74.2 43 76.3 46.9C77.4 48.8 77.4 50.9 76.7 53.2C79.2 53.3 81.1 53.6 83.2 54.9C85.6 56.5 86.6 59.6 86.6 62.3C86.6 63.9 85.6 65.2 84.8 66.5V66.8C86.4 68 88.3 70.1 88.5 72.1V75.4C88 77.8 86.2 80 83.8 80.7C82.5 81 81.1 81 79.8 81H78L77.5 80.8L75.6 79.9C74.6 79.4 73.8 78.3 73.2 77.5ZM52.1 51.9C52.1 52.7 52.1 53.4 53.8 53.4C55.2 53.4 55.9 52.7 56.7 51.9C57.4 51.4 57 50.8 57 50.4C57 48.6 55.9 47.5 54.7 45.8L53.8 45C53.2 45.7 53.2 46 52.8 46.8C52.7 47.5 52.1 50.8 52.1 51.2V51.9Z" fill="#D9D9D9"/>
</svg>
