<svg width="110" height="110" viewBox="0 0 110 110" fill="none" xmlns="http://www.w3.org/2000/svg">
<circle cx="55" cy="55" r="54.35" fill="white" stroke="#BBB4B4" stroke-width="1.3"/>
<path d="M51.4 86.8L50.7 86.1C49.3 87 47.7 87.5 46 87.6C42.7 87.7 38.5 86.1 38.5 81.9C38.5 79.5 40.2 78.4 40.6 78.1C40.2 77.1 39.9 76.1 39.9 74.8C39.4 70.9 45.2 69.3 47.9 69.3C50.8 69.3 52.7 70.9 55 72.5C55.6 71.7 56.3 70.6 57.5 69.4C58.3 68.6 59.3 68.1 60.4 67.7C59.6 66.7 59.1 65.1 58.9 64C56.6 65.8 52.1 66.8 49.1 66.8C44.2 66.8 37.5 65.4 38.1 58.7C33.6 58.3 30.3 55.7 30.3 50.5C30.3 48.2 31 46.3 31.9 44.3C31.4 42.6 31.2 41.9 31.2 40.9C31.2 36.9 33.6 33.7 37.7 33.1C38.1 27.5 39.7 25.4 45.6 24.7C47.7 24.7 48.6 25.3 50.4 26.4C52.8 24 55.7 22.8 59.1 22.8C63.3 22.8 65.7 25.5 66.9 28.3C72 28.3 76.7 30.4 77.3 36.4C77.6 38.7 77.4 41.1 76.5 43.5C79.9 45.2 80.9 48.3 81 51.9C81.1 54.5 79.4 56.7 77.6 58.8C79 60.2 80.4 61.8 80.4 64C80.4 67.4 79.3 69.1 76.7 71C77.2 72.6 77.6 74.5 77.6 76.3C77.6 81.2 74.1 84.8 69 84.9C66.8 84.8 66.4 84.7 66 84.7C64.9 86.6 61.4 89.3 57.8 89.3C53.3 89.2 52.5 87.9 51.4 86.8ZM51.7 45.4V46.3C52.3 47.1 53.9 47.4 55 47.4C56.5 47.4 57.1 46 57.1 44.7C57.1 43.9 56.6 43.3 56.3 42.8H55.5C53 42.8 51.7 43 51.7 45.4Z" fill="#D9D9D9"/>
</svg>
