<svg width="114" height="110" viewBox="0 0 114 110" fill="none" xmlns="http://www.w3.org/2000/svg">
<circle cx="55" cy="55" r="54.35" fill="white" stroke="#BBB4B4" stroke-width="1.3"/>
<path d="M57.7 81.2C54.1 81.2 51 79.1 48.3 76.8C47.2 76.8 46.3 77.3 45 77.3C38.9 77.3 34.5 72.1 34.5 66.1C34.5 65.5 34.7 65 34.8 64.3C31.6 63.1 29.3 60 29.3 56.6C29.3 52.5 31 49.2 34.5 47.7C32.8 38.9 40.2 33.8 47.2 35.7C50.1 29.8 55.1 29.9 56.5 29.9C63 29.9 65.9 33.2 67.2 36.5C73.1 36.5 78.6 38.3 78.6 45.5C78.6 46.7 78.3 47.7 78 48.6C77.7 49.5 77.4 50.3 77.4 51.1C77.4 51.4 78.1 51.8 78.7 52.4C80.4 53.8 82.9 56.1 82.9 59.2C82.9 63.5 79.8 65 76.6 66.7C77 67.7 77.2 68.6 77.2 69.5C77.3 73.8 73.3 76.4 68.8 75.7C65.6 79.4 62.6 81.2 57.7 81.2ZM56.2 67C57.2 68.2 58.8 68.7 60.3 68.7C62.8 68.5 63.4 67.5 63.4 66.4C63.4 65.6 63.4 65.2 62.6 65.2C62.1 65.2 61.8 65.7 61.5 66C61.1 66.4 60.8 66.7 60.3 66.7C57.7 66.7 57.4 64.5 57.4 62.3V60.7C58.3 60.3 58.6 59.5 58.6 58.9C58.6 58.2 57.8 57.4 56.5 57.4C55.1 57.4 53.9 57.8 53.9 59.2C53.9 59.8 54.4 60.3 54.7 60.7V64.9C54.7 65.6 52.4 66.1 51.9 66.1C51.7 66.1 51.4 66 51.3 65.8C51.1 65.6 50.8 65.2 50.4 65.2C49.6 65.2 49.6 65.7 49.6 66.1C49.6 67.5 50.6 68.5 51.7 68.5C53.6 68.5 55.5 67.6 56.2 67ZM47.2 51.9C47.2 53.2 47.6 53.6 49 53.6C50.1 53.6 50.5 53.2 50.5 51.9C50.5 50.9 50.1 50.5 49 50.5C47.6 50.5 47.2 50.9 47.2 51.9ZM60.6 52.7C60.6 53.5 61.3 54.1 62.3 54.1C63.3 54.1 63.7 53.1 63.7 52.5C63.7 51.5 62.9 51.1 62.3 51.1C61 51.1 60.6 51.5 60.6 52.7Z" fill="#D9D9D9"/>
</svg>
