<svg width="112.17347252267513" height="110.88" viewBox="-0.7546261695944533 0 112.17347252267513 110.88" fill="none" xmlns="http://www.w3.org/2000/svg">
<circle cx="55" cy="55" r="54.35" fill="white" stroke="#BBB4B4" stroke-width="1.3"></circle>
<path d="M48.1 85.1C45.4 85.1 43.4 83.5 41.6 81.7C41 81.8 40.7 81.8 39.9 81.8C37.5 81.8 35.2 80.9 35.2 78C35.2 76.1 36.2 75.2 37.4 73.7L37.1 73.4C36.4 72.8 35.2 71.6 35 69C35 67.2 35.3 66 36.6 64.5C35.7 63.1 34.7 63 34.7 60.6C34.7 58.6 35 57.7 36.4 56.3C34.6 54.6 34 53.4 34 51.2C34 49.2 34.6 48 35.6 46.5C34.4 45.4 34 44.3 34 42.6C34 41.1 34.5 39.9 35.6 38.6C34.5 37.1 34 35.6 34 33.9C34 30.9 34.9 29.3 37.2 27.4C37.1 26.9 37 26.4 37 26C37 22.2 41.1 21 43.2 21C46.4 21 49.3 23.1 49.3 26.5C49.3 27.2 49.3 27.8 49.2 28.2C51.9 29.2 53.6 30 53.6 33.2C53.6 35.6 52.8 37.1 50.9 38.4C52.4 39.8 52.8 41.1 52.8 43.1C52.8 45 51.6 46.2 50.4 47.6C51 48.1 51.4 48.2 51.9 48.7C52.3 47.9 52.8 46.4 55.8 46.4H58.6C59.1 42.5 61.7 39.5 65.8 39.5C67.2 39.5 68.7 39.7 70.3 41C71.8 39.8 73.3 39.3 75.6 39.3C79.6 39.3 80.9 42.5 80.9 44.7C80.9 45.4 80.5 45.9 80.4 46.6C81.6 48.3 82.1 49.3 82.1 51.2C82.1 53.8 79.6 56.4 76.7 56.4C75.8 56.4 75.4 56.4 74.5 56C73.3 58.4 71.7 59.4 68.9 59.4C67.1 59.4 65.3 59.5 64.1 57.9L63.1 58.8L63 58.9L62.7 59.1C63.3 59.7 63.8 60.3 64.4 60.8C65.3 60.6 66.2 60.5 67.3 60.5C69.8 60.5 72.1 61.5 73.5 63.2C74.3 64.2 74.9 65.4 75 66.9C77.9 67.3 81.2 69 81.2 72.6C81.2 75.6 79.1 77.2 76.7 77.8C76.7 78.1 76.7 78.3 76.8 78.6C76.9 79 77 79.3 77 79.8C77 82.2 75.6 84.3 73 84.3C72.5 84.3 72.2 84.2 71.8 84C71.4 83.8 71 83.6 70.8 83.6C70.8 83.6 70.3 83.8 70.1 83.9C69.7 84.1 69.1 84.3 68.5 84.3C65.5 84.3 64.2 82.3 63.6 79.7H63.2C62.8 79.8 62 79.8 61.7 79.8C58.1 79.8 56.3 76 56.2 72.9H54.8C55.1 77.6 54.6 78 53.1 78.8V80.8C52.8 83 50.1 85.1 48.1 85.1Z" fill="#D9D9D9"></path>
</svg>