<svg width="110" height="110" viewBox="0 0 110 110" fill="none" xmlns="http://www.w3.org/2000/svg">
<path d="M109.35 55C109.35 85.0167 85.0168 109.35 55.0001 109.35C24.9834 109.35 0.650079 85.0167 0.650079 55C0.650079 24.9833 24.9834 0.65 55.0001 0.65C85.0168 0.65 109.35 24.9833 109.35 55Z" fill="white" stroke="#BBB4B4" stroke-width="1.3"/>
<path d="M46.6 83.4C46.6 82 47 81.4 47.7 80.3C45.9 77.9 45.1 76.5 45.1 75C45.1 73.5 46.2 71.5 47.5 70.4C46 68.4 45 65.8 44.9 63.2C44.8 60.6 45.5 57.9 47.4 55.9C46.6 55.2 45.8 54.1 45.7 52.5C45.4 47.5 51.8 45.8 55.8 45.8C59 45.8 61.6 47 61.9 50C64 50.5 65.9 51.3 65.9 54C65.9 55.7 64.6 57.1 63.4 58.7C65.4 59.5 65.9 61.1 65.9 62.8C65.9 64.7 64.8 66 63.7 67.6C63.7 67.8 64.1 68.3 64.9 68.8C66.1 69.6 67.9 70.5 67.9 74.1C67.9 77.6 65.8 78.7 64.5 79.3C64.9 80.3 65.4 81.2 65.4 82.4C65.4 84.6 63.9 86.7 61 86.7C59 86.7 57.3 86.2 55.8 85.5C54 86.3 52.7 86.7 50.9 86.7C48.5 86.7 46.6 85.6 46.6 83.4ZM58.5 42.8C56.2 42.8 54.9 42.1 53.5 40.4C52.9 40.8 51.5 41.5 49.9 41.5C47.2 41.5 44.6 38.9 44.6 36.3C44.6 34.6 45.2 33.7 46.3 32.3C45.9 31.4 45.4 30.3 45.4 29.4C45.4 26 48.2 23.6 51.4 23.6C53.3 23.6 55.3 23.9 56.4 25.9C57.5 25.3 58.7 24.9 60.2 24.9C63.6 24.9 66.2 27 66.2 30.3C66.2 33.3 65.1 34.5 62.9 35.4C63.3 36.2 63.7 37.1 63.7 37.9C63.7 40.5 61.7 42.8 58.5 42.8Z" fill="#D9D9D9"/>
</svg>
