<svg width="111.91158096541831" height="110.88" viewBox="-1.1123001970466346 0 111.91158096541831 110.88" fill="none" xmlns="http://www.w3.org/2000/svg">
<circle cx="55" cy="55" r="54.35" fill="white" stroke="#BBB4B4" stroke-width="1.3"></circle>
<path d="M28.4 79.3C25.1 79.3 23.2 77 22.1 74.4C18.8 74.8 16.8 71 16.8 68.3C16.8 66.4 17.4 64.8 18.2 63.2C15.5 61.7 15.7 59.8 15.6 59.3C15.5 57.3 16.4 55.5 17.6 53.9C16.9 52.6 15.9 50.8 15.9 49.2C15.9 45.2 18.6 43.7 21.7 42.5C21.8 42.5 22 42.4 22 42.4C21.8 41.7 21.7 41.1 21.7 40.5C21.5 34.6 26.7 31.2 28.7 31.2C33.5 30.1 34.8 32.3 35.6 32.6C37.7 30.5 40.3 29.5 43.7 29.5C48 29.5 51 33.1 52.5 36.9C54 34.8 56.1 33.5 59 33.5C59.6 33.5 60.1 33.7 60.8 33.8C62.6 31.2 65 30.4 68.3 30.4C72.4 30.4 75.9 32.3 76.9 36.6C79.3 35.7 80.3 35.3 82.5 35.3C86.5 35.3 88.9 37.7 88.9 41.9C88.9 42.6 88.8 43.3 88.6 43.7C88.5 44 88.3 44.5 88.3 44.9C90.4 45.1 93.5 46.2 93.5 48.9C93.5 50.7 92.3 52 91.1 53.3C94.1 54.9 95.3 57.5 95.3 60.8C95.3 63.5 94.8 66.2 92.1 67.7C92.6 68.8 92.9 70.3 92.9 71.5C92.9 74.7 91.1 79 87.4 79C84.8 79 83.2 77.7 82.5 77.3C82 77.6 81.5 78.4 78.5 78.4C75.3 78.4 72.4 77.2 72.4 73.5C72.4 71.7 73.3 69.3 74.1 67.7C70.6 65.6 68.9 64.2 68.9 59.9C68.9 57.9 68.9 56.9 69.6 55.3C68 55.3 67.1 54.9 66.1 54L65.4 54.8C65 55.4 63.4 57.2 62.7 57.7C63 58.5 63.4 59.2 63.7 59.7C64.3 60.9 65.1 62.1 65.1 63.7C65.1 66.8 63.3 69.6 60.8 71.1C60.7 74 58.8 76.4 55.6 76.4C48.9 76.4 46 72.6 46 68.6C46 66.2 46.8 65.2 46.9 65.2C45.9 63.6 45.2 62.6 45.2 60.5C45.2 59.4 45.8 58.3 46.1 57.2L44.1 55.8C43.1 55 42.4 53.9 41.9 52.9C40.6 53.7 40 53.6 38.6 53.6C39.9 56.7 40.4 60.3 37.4 63.3C38.5 65.1 39.1 66.2 39.1 68.3C39.1 71.3 36.8 73.2 34.4 73.8C33.6 77.7 31.9 79.3 28.4 79.3Z" fill="#FF7F00"></path>
</svg>