<svg width="30" height="30" viewBox="0 0 30 30" fill="none" xmlns="http://www.w3.org/2000/svg">
<g clip-path="url(#clip0_819_910)">
<path d="M25.5694 4.4306L28.7119 5.05873C28.8806 5.09248 29.0194 5.21623 29.0681 5.3831C29.0927 5.46417 29.0949 5.55039 29.0745 5.63259C29.054 5.7148 29.0116 5.78993 28.9519 5.84998L26.3775 8.42623C26.069 8.73297 25.6519 8.90549 25.2169 8.90623H23.0813L17.7187 14.2706C17.8211 14.6569 17.8399 15.0606 17.7739 15.4547C17.708 15.8488 17.5588 16.2244 17.3364 16.5563C17.1139 16.8883 16.8233 17.1691 16.4838 17.3799C16.1443 17.5907 15.7638 17.7268 15.3677 17.779C14.9715 17.8313 14.5687 17.7985 14.1862 17.6829C13.8037 17.5672 13.4502 17.3714 13.1493 17.1085C12.8484 16.8455 12.607 16.5215 12.4411 16.1579C12.2753 15.7943 12.1888 15.3996 12.1875 15C12.1874 14.5684 12.2866 14.1426 12.4775 13.7555C12.6684 13.3684 12.9458 13.0305 13.2882 12.7678C13.6307 12.5051 14.0289 12.3248 14.4523 12.2407C14.8756 12.1567 15.3126 12.1712 15.7294 12.2831L21.0938 6.91685V4.78498C21.0938 4.34998 21.2662 3.93185 21.5737 3.62435L24.15 1.0481C24.2101 0.988346 24.2852 0.945979 24.3674 0.92551C24.4496 0.90504 24.5358 0.907232 24.6169 0.931854C24.7837 0.980604 24.9075 1.11935 24.9413 1.2881L25.5694 4.4306Z" fill="#FF7F00"/>
<path d="M3.7498 15C3.75173 16.6087 4.09864 18.1982 4.76712 19.6614C5.4356 21.1246 6.41011 22.4275 7.62492 23.482C8.83972 24.5366 10.2666 25.3184 11.8092 25.7746C13.3518 26.2308 14.9743 26.3509 16.5673 26.1268C18.1603 25.9026 19.6867 25.3395 21.0435 24.4752C22.4004 23.611 23.5561 22.4659 24.4327 21.117C25.3093 19.7682 25.8865 18.247 26.1252 16.6562C26.364 15.0653 26.2587 13.4417 25.8167 11.895C25.7546 11.7143 25.73 11.5228 25.7443 11.3323C25.7585 11.1418 25.8115 10.9561 25.8998 10.7867C25.9881 10.6173 26.11 10.4676 26.258 10.3468C26.406 10.2259 26.577 10.1365 26.7607 10.0839C26.9444 10.0313 27.1369 10.0166 27.3264 10.0407C27.516 10.0649 27.6986 10.1274 27.8632 10.2244C28.0278 10.3213 28.171 10.4508 28.284 10.6049C28.397 10.759 28.4774 10.9345 28.5204 11.1206C29.3764 14.116 29.2138 17.3108 28.0581 20.2037C26.9025 23.0967 24.8191 25.5242 22.135 27.1054C19.4508 28.6865 16.3176 29.3319 13.2271 28.9402C10.1365 28.5486 7.26344 27.142 5.05855 24.9412C2.85607 22.7369 1.44801 19.8635 1.05544 16.7723C0.662866 13.681 1.30802 10.5469 2.8896 7.862C4.47118 5.17711 6.89963 3.09348 9.79367 1.93825C12.6877 0.783026 15.8835 0.621616 18.8792 1.47937C19.2359 1.58364 19.5368 1.82487 19.7162 2.15034C19.8956 2.47581 19.9388 2.85905 19.8365 3.21632C19.7342 3.57359 19.4946 3.87583 19.1701 4.05698C18.8456 4.23814 18.4626 4.28349 18.1048 4.18312C16.4296 3.70208 14.6656 3.61684 12.9518 3.93412C11.2381 4.25139 9.62148 4.96251 8.22954 6.01137C6.8376 7.06024 5.70839 8.41816 4.93098 9.97805C4.15356 11.5379 3.74921 13.2571 3.7498 15Z" fill="#FF7F00"/>
<path d="M9.37492 15C9.37503 16.0249 9.65495 17.0302 10.1845 17.9077C10.714 18.7851 11.4731 19.5014 12.3797 19.9791C13.2864 20.4569 14.3063 20.678 15.3295 20.6187C16.3526 20.5594 17.3401 20.2218 18.1855 19.6425C19.0308 19.0617 19.7012 18.2609 20.1242 17.3266C20.5472 16.3924 20.7067 15.3602 20.5855 14.3419C20.5528 14.0948 20.5865 13.8434 20.6831 13.6136C20.7798 13.3838 20.936 13.184 21.1356 13.0346C21.3352 12.8852 21.571 12.7918 21.8187 12.7638C22.0664 12.7359 22.3171 12.7745 22.5449 12.8756C22.7727 12.9755 22.97 13.1339 23.1165 13.3348C23.2631 13.5358 23.3538 13.772 23.3793 14.0194C23.583 15.7596 23.24 17.52 22.3978 19.0564C21.5555 20.5928 20.2559 21.8288 18.6793 22.5931C17.1027 23.3573 15.3273 23.6117 13.5995 23.3211C11.8717 23.0305 10.2772 22.2092 9.03735 20.9712C7.79751 19.7333 6.9738 18.14 6.68055 16.4127C6.3873 14.6853 6.63907 12.9095 7.40089 11.3318C8.16272 9.75397 9.39682 8.45249 10.9319 7.60794C12.467 6.76339 14.2269 6.41766 15.9674 6.61875C16.1538 6.63604 16.3348 6.69037 16.4999 6.77853C16.665 6.8667 16.8109 6.98693 16.9289 7.13219C17.0469 7.27745 17.1348 7.44481 17.1873 7.62446C17.2398 7.80411 17.2559 7.99244 17.2347 8.1784C17.2135 8.36436 17.1553 8.54421 17.0637 8.70742C16.9721 8.87062 16.8488 9.01389 16.7011 9.12883C16.5534 9.24377 16.3842 9.32807 16.2035 9.37678C16.0228 9.42549 15.8341 9.43764 15.6487 9.4125C14.8605 9.32099 14.0619 9.39726 13.3054 9.63628C12.5488 9.87531 11.8513 10.2717 11.2588 10.7994C10.6663 11.3271 10.1921 11.9742 9.86745 12.6981C9.54277 13.4221 9.37491 14.2066 9.37492 15Z" fill="#FF7F00"/>
</g>
<defs>
<clipPath id="clip0_819_910">
<rect width="30" height="30" fill="white"/>
</clipPath>
</defs>
</svg>
