<svg width="24" height="23" viewBox="0 0 24 23" fill="none" xmlns="http://www.w3.org/2000/svg">
<path d="M12 9.54209C12.5107 9.54209 13.0164 9.44455 13.4882 9.25503C13.96 9.06552 14.3887 8.78775 14.7499 8.43757C15.111 8.0874 15.3974 7.67168 15.5929 7.21416C15.7883 6.75664 15.8889 6.26626 15.8889 5.77104C15.8889 5.27582 15.7883 4.78545 15.5929 4.32793C15.3974 3.8704 15.111 3.45469 14.7499 3.10451C14.3887 2.75434 13.96 2.47657 13.4882 2.28705C13.0164 2.09754 12.5107 2 12 2C10.9686 2 9.97945 2.39731 9.25014 3.10451C8.52083 3.81172 8.11111 4.7709 8.11111 5.77104C8.11111 6.77119 8.52083 7.73037 9.25014 8.43757C9.97945 9.14478 10.9686 9.54209 12 9.54209ZM2 20.7475V21.3939H22V20.7475C22 18.334 22 17.1273 21.5156 16.205C21.0895 15.3941 20.4096 14.7348 19.5733 14.3216C18.6222 13.8519 17.3778 13.8519 14.8889 13.8519H9.11111C6.62222 13.8519 5.37778 13.8519 4.42667 14.3216C3.59043 14.7348 2.91054 15.3941 2.48444 16.205C2 17.1273 2 18.334 2 20.7475Z" stroke="#FF7F00" stroke-width="2.5" stroke-linecap="round" stroke-linejoin="round"/>
</svg>
