<svg width="24" height="23" viewBox="0 0 24 23" fill="none" xmlns="http://www.w3.org/2000/svg">
<path d="M12 21.4848C13.9778 21.4848 15.9112 20.9118 17.5557 19.8383C19.2002 18.7648 20.4819 17.239 21.2388 15.4538C21.9957 13.6686 22.1937 11.7042 21.8078 9.80907C21.422 7.91393 20.4696 6.17313 19.0711 4.80681C17.6725 3.44048 15.8907 2.51001 13.9509 2.13304C12.0111 1.75607 10.0004 1.94955 8.17316 2.68899C6.3459 3.42844 4.78412 4.68065 3.6853 6.28728C2.58649 7.8939 2 9.78278 2 11.7151C2 13.3303 2.4 14.8522 3.11111 16.195L2 21.4848L7.41444 20.3993C8.78778 21.0929 10.3478 21.4848 12 21.4848Z" stroke="#FF7F00" stroke-width="2.2" stroke-linecap="round" stroke-linejoin="round"/>
</svg>
