<svg width="48" height="45" viewBox="0 0 48 45" fill="none" xmlns="http://www.w3.org/2000/svg">
<mask id="mask0_805_910" style="mask-type:luminance" maskUnits="userSpaceOnUse" x="0" y="0" width="48" height="45">
<path d="M0 0.872559H48V44.5089H0V0.872559Z" fill="white"/>
</mask>
<g mask="url(#mask0_805_910)">
<g filter="url(#filter0_i_805_910)">
<path d="M43.4218 28.7592V36.551C43.4218 37.4919 42.5818 38.2555 41.5468 38.2555H37.7968C36.7618 38.2555 35.9218 37.4919 35.9218 36.551V32.1614C35.9218 31.2906 35.5552 30.4528 34.8972 29.8198C34.2392 29.1869 33.3397 28.8069 32.3833 28.7578L43.4218 28.7592Z" fill="#7F7590"/>
<path d="M43.4218 28.7592V36.551C43.4218 37.4919 42.5818 38.2555 41.5468 38.2555H37.7968C36.7618 38.2555 35.9218 37.4919 35.9218 36.551V32.1614C35.9218 31.2906 35.5552 30.4528 34.8972 29.8198C34.2392 29.1869 33.3397 28.8069 32.3833 28.7578L43.4218 28.7592Z" fill="url(#paint0_linear_805_910)"/>
<path d="M43.4218 28.7592V36.551C43.4218 37.4919 42.5818 38.2555 41.5468 38.2555H37.7968C36.7618 38.2555 35.9218 37.4919 35.9218 36.551V32.1614C35.9218 31.2906 35.5552 30.4528 34.8972 29.8198C34.2392 29.1869 33.3397 28.8069 32.3833 28.7578L43.4218 28.7592Z" fill="url(#paint1_linear_805_910)"/>
</g>
<path d="M26.9921 26.6333H22.5161C21.6877 26.6333 21.0161 27.2438 21.0161 27.9969V36.9465C21.0161 37.6996 21.6877 38.3101 22.5161 38.3101H26.9921C27.8205 38.3101 28.4921 37.6996 28.4921 36.9465V27.9969C28.4921 27.2438 27.8205 26.6333 26.9921 26.6333Z" fill="url(#paint2_radial_805_910)"/>
<path d="M26.9921 26.6333H22.5161C21.6877 26.6333 21.0161 27.2438 21.0161 27.9969V36.9465C21.0161 37.6996 21.6877 38.3101 22.5161 38.3101H26.9921C27.8205 38.3101 28.4921 37.6996 28.4921 36.9465V27.9969C28.4921 27.2438 27.8205 26.6333 26.9921 26.6333Z" fill="url(#paint3_linear_805_910)"/>
<path d="M26.9921 26.6333H22.5161C21.6877 26.6333 21.0161 27.2438 21.0161 27.9969V36.9465C21.0161 37.6996 21.6877 38.3101 22.5161 38.3101H26.9921C27.8205 38.3101 28.4921 37.6996 28.4921 36.9465V27.9969C28.4921 27.2438 27.8205 26.6333 26.9921 26.6333Z" fill="url(#paint4_linear_805_910)"/>
<path d="M26.9921 26.6333H22.5161C21.6877 26.6333 21.0161 27.2438 21.0161 27.9969V36.9465C21.0161 37.6996 21.6877 38.3101 22.5161 38.3101H26.9921C27.8205 38.3101 28.4921 37.6996 28.4921 36.9465V27.9969C28.4921 27.2438 27.8205 26.6333 26.9921 26.6333Z" fill="url(#paint5_linear_805_910)"/>
<path d="M3.02979 14.1845C3.02979 12.2858 3.85947 10.4648 5.33632 9.12224C6.81317 7.77965 8.81621 7.02539 10.9048 7.02539H31.4698C35.0502 7.02539 38.484 8.31841 41.0157 10.62C43.5475 12.9216 44.9698 16.0432 44.9698 19.2981V36.5508C44.9698 37.4918 44.1298 38.2554 43.0948 38.2554H39.3448C38.3098 38.2554 37.4698 37.4918 37.4698 36.5508V32.1613C37.4698 31.2572 37.0747 30.39 36.3714 29.7507C35.6682 29.1114 34.7143 28.7522 33.7198 28.7522H26.9173C26.3068 28.7522 25.7055 28.8878 25.1657 29.147C24.6259 29.4063 24.1639 29.7815 23.8198 30.2399L18.7453 37.0022C18.4699 37.3688 18.1002 37.6687 17.6684 37.8759C17.2365 38.0831 16.7556 38.1914 16.2673 38.1913H12.0568C11.7776 38.1913 11.5039 38.1205 11.2666 37.9868C11.0293 37.853 10.8377 37.6618 10.7134 37.4345C10.5892 37.2071 10.5372 36.9528 10.5633 36.7001C10.5895 36.4474 10.6926 36.2063 10.8613 36.004L14.2963 31.8804C14.7897 31.1622 15.0258 30.3226 14.9721 29.4772C14.9184 28.6319 14.5774 27.8226 13.9963 27.1608L13.2823 26.3481C12.9311 25.9483 12.4854 25.6255 11.9783 25.4036C11.4712 25.1817 10.9156 25.0664 10.3528 25.0663H3.02979V14.1845Z" fill="#B0ACBC"/>
<path d="M3.02979 14.1845C3.02979 12.2858 3.85947 10.4648 5.33632 9.12224C6.81317 7.77965 8.81621 7.02539 10.9048 7.02539H31.4698C35.0502 7.02539 38.484 8.31841 41.0157 10.62C43.5475 12.9216 44.9698 16.0432 44.9698 19.2981V36.5508C44.9698 37.4918 44.1298 38.2554 43.0948 38.2554H39.3448C38.3098 38.2554 37.4698 37.4918 37.4698 36.5508V32.1613C37.4698 31.2572 37.0747 30.39 36.3714 29.7507C35.6682 29.1114 34.7143 28.7522 33.7198 28.7522H26.9173C26.3068 28.7522 25.7055 28.8878 25.1657 29.147C24.6259 29.4063 24.1639 29.7815 23.8198 30.2399L18.7453 37.0022C18.4699 37.3688 18.1002 37.6687 17.6684 37.8759C17.2365 38.0831 16.7556 38.1914 16.2673 38.1913H12.0568C11.7776 38.1913 11.5039 38.1205 11.2666 37.9868C11.0293 37.853 10.8377 37.6618 10.7134 37.4345C10.5892 37.2071 10.5372 36.9528 10.5633 36.7001C10.5895 36.4474 10.6926 36.2063 10.8613 36.004L14.2963 31.8804C14.7897 31.1622 15.0258 30.3226 14.9721 29.4772C14.9184 28.6319 14.5774 27.8226 13.9963 27.1608L13.2823 26.3481C12.9311 25.9483 12.4854 25.6255 11.9783 25.4036C11.4712 25.1817 10.9156 25.0664 10.3528 25.0663H3.02979V14.1845Z" fill="url(#paint6_linear_805_910)"/>
<path d="M3.02979 14.1845C3.02979 12.2858 3.85947 10.4648 5.33632 9.12224C6.81317 7.77965 8.81621 7.02539 10.9048 7.02539H31.4698C35.0502 7.02539 38.484 8.31841 41.0157 10.62C43.5475 12.9216 44.9698 16.0432 44.9698 19.2981V36.5508C44.9698 37.4918 44.1298 38.2554 43.0948 38.2554H39.3448C38.3098 38.2554 37.4698 37.4918 37.4698 36.5508V32.1613C37.4698 31.2572 37.0747 30.39 36.3714 29.7507C35.6682 29.1114 34.7143 28.7522 33.7198 28.7522H26.9173C26.3068 28.7522 25.7055 28.8878 25.1657 29.147C24.6259 29.4063 24.1639 29.7815 23.8198 30.2399L18.7453 37.0022C18.4699 37.3688 18.1002 37.6687 17.6684 37.8759C17.2365 38.0831 16.7556 38.1914 16.2673 38.1913H12.0568C11.7776 38.1913 11.5039 38.1205 11.2666 37.9868C11.0293 37.853 10.8377 37.6618 10.7134 37.4345C10.5892 37.2071 10.5372 36.9528 10.5633 36.7001C10.5895 36.4474 10.6926 36.2063 10.8613 36.004L14.2963 31.8804C14.7897 31.1622 15.0258 30.3226 14.9721 29.4772C14.9184 28.6319 14.5774 27.8226 13.9963 27.1608L13.2823 26.3481C12.9311 25.9483 12.4854 25.6255 11.9783 25.4036C11.4712 25.1817 10.9156 25.0664 10.3528 25.0663H3.02979V14.1845Z" fill="url(#paint7_linear_805_910)"/>
<path d="M3.02979 14.1845C3.02979 12.2858 3.85947 10.4648 5.33632 9.12224C6.81317 7.77965 8.81621 7.02539 10.9048 7.02539H31.4698C35.0502 7.02539 38.484 8.31841 41.0157 10.62C43.5475 12.9216 44.9698 16.0432 44.9698 19.2981V36.5508C44.9698 37.4918 44.1298 38.2554 43.0948 38.2554H39.3448C38.3098 38.2554 37.4698 37.4918 37.4698 36.5508V32.1613C37.4698 31.2572 37.0747 30.39 36.3714 29.7507C35.6682 29.1114 34.7143 28.7522 33.7198 28.7522H26.9173C26.3068 28.7522 25.7055 28.8878 25.1657 29.147C24.6259 29.4063 24.1639 29.7815 23.8198 30.2399L18.7453 37.0022C18.4699 37.3688 18.1002 37.6687 17.6684 37.8759C17.2365 38.0831 16.7556 38.1914 16.2673 38.1913H12.0568C11.7776 38.1913 11.5039 38.1205 11.2666 37.9868C11.0293 37.853 10.8377 37.6618 10.7134 37.4345C10.5892 37.2071 10.5372 36.9528 10.5633 36.7001C10.5895 36.4474 10.6926 36.2063 10.8613 36.004L14.2963 31.8804C14.7897 31.1622 15.0258 30.3226 14.9721 29.4772C14.9184 28.6319 14.5774 27.8226 13.9963 27.1608L13.2823 26.3481C12.9311 25.9483 12.4854 25.6255 11.9783 25.4036C11.4712 25.1817 10.9156 25.0664 10.3528 25.0663H3.02979V14.1845Z" fill="url(#paint8_linear_805_910)"/>
<path d="M3.02979 14.1845C3.02979 12.2858 3.85947 10.4648 5.33632 9.12224C6.81317 7.77965 8.81621 7.02539 10.9048 7.02539H31.4698C35.0502 7.02539 38.484 8.31841 41.0157 10.62C43.5475 12.9216 44.9698 16.0432 44.9698 19.2981V36.5508C44.9698 37.4918 44.1298 38.2554 43.0948 38.2554H39.3448C38.3098 38.2554 37.4698 37.4918 37.4698 36.5508V32.1613C37.4698 31.2572 37.0747 30.39 36.3714 29.7507C35.6682 29.1114 34.7143 28.7522 33.7198 28.7522H26.9173C26.3068 28.7522 25.7055 28.8878 25.1657 29.147C24.6259 29.4063 24.1639 29.7815 23.8198 30.2399L18.7453 37.0022C18.4699 37.3688 18.1002 37.6687 17.6684 37.8759C17.2365 38.0831 16.7556 38.1914 16.2673 38.1913H12.0568C11.7776 38.1913 11.5039 38.1205 11.2666 37.9868C11.0293 37.853 10.8377 37.6618 10.7134 37.4345C10.5892 37.2071 10.5372 36.9528 10.5633 36.7001C10.5895 36.4474 10.6926 36.2063 10.8613 36.004L14.2963 31.8804C14.7897 31.1622 15.0258 30.3226 14.9721 29.4772C14.9184 28.6319 14.5774 27.8226 13.9963 27.1608L13.2823 26.3481C12.9311 25.9483 12.4854 25.6255 11.9783 25.4036C11.4712 25.1817 10.9156 25.0664 10.3528 25.0663H3.02979V14.1845Z" fill="url(#paint9_radial_805_910)"/>
<path d="M3.02979 14.1845C3.02979 12.2858 3.85947 10.4648 5.33632 9.12224C6.81317 7.77965 8.81621 7.02539 10.9048 7.02539H31.4698C35.0502 7.02539 38.484 8.31841 41.0157 10.62C43.5475 12.9216 44.9698 16.0432 44.9698 19.2981V36.5508C44.9698 37.4918 44.1298 38.2554 43.0948 38.2554H39.3448C38.3098 38.2554 37.4698 37.4918 37.4698 36.5508V32.1613C37.4698 31.2572 37.0747 30.39 36.3714 29.7507C35.6682 29.1114 34.7143 28.7522 33.7198 28.7522H26.9173C26.3068 28.7522 25.7055 28.8878 25.1657 29.147C24.6259 29.4063 24.1639 29.7815 23.8198 30.2399L18.7453 37.0022C18.4699 37.3688 18.1002 37.6687 17.6684 37.8759C17.2365 38.0831 16.7556 38.1914 16.2673 38.1913H12.0568C11.7776 38.1913 11.5039 38.1205 11.2666 37.9868C11.0293 37.853 10.8377 37.6618 10.7134 37.4345C10.5892 37.2071 10.5372 36.9528 10.5633 36.7001C10.5895 36.4474 10.6926 36.2063 10.8613 36.004L14.2963 31.8804C14.7897 31.1622 15.0258 30.3226 14.9721 29.4772C14.9184 28.6319 14.5774 27.8226 13.9963 27.1608L13.2823 26.3481C12.9311 25.9483 12.4854 25.6255 11.9783 25.4036C11.4712 25.1817 10.9156 25.0664 10.3528 25.0663H3.02979V14.1845Z" fill="url(#paint10_linear_805_910)"/>
<path d="M3.02979 14.1845C3.02979 12.2858 3.85947 10.4648 5.33632 9.12224C6.81317 7.77965 8.81621 7.02539 10.9048 7.02539H31.4698C35.0502 7.02539 38.484 8.31841 41.0157 10.62C43.5475 12.9216 44.9698 16.0432 44.9698 19.2981V36.5508C44.9698 37.4918 44.1298 38.2554 43.0948 38.2554H39.3448C38.3098 38.2554 37.4698 37.4918 37.4698 36.5508V32.1613C37.4698 31.2572 37.0747 30.39 36.3714 29.7507C35.6682 29.1114 34.7143 28.7522 33.7198 28.7522H26.9173C26.3068 28.7522 25.7055 28.8878 25.1657 29.147C24.6259 29.4063 24.1639 29.7815 23.8198 30.2399L18.7453 37.0022C18.4699 37.3688 18.1002 37.6687 17.6684 37.8759C17.2365 38.0831 16.7556 38.1914 16.2673 38.1913H12.0568C11.7776 38.1913 11.5039 38.1205 11.2666 37.9868C11.0293 37.853 10.8377 37.6618 10.7134 37.4345C10.5892 37.2071 10.5372 36.9528 10.5633 36.7001C10.5895 36.4474 10.6926 36.2063 10.8613 36.004L14.2963 31.8804C14.7897 31.1622 15.0258 30.3226 14.9721 29.4772C14.9184 28.6319 14.5774 27.8226 13.9963 27.1608L13.2823 26.3481C12.9311 25.9483 12.4854 25.6255 11.9783 25.4036C11.4712 25.1817 10.9156 25.0664 10.3528 25.0663H3.02979V14.1845Z" fill="url(#paint11_radial_805_910)"/>
<path d="M3.02979 14.1845C3.02979 12.2858 3.85947 10.4648 5.33632 9.12224C6.81317 7.77965 8.81621 7.02539 10.9048 7.02539H31.4698C35.0502 7.02539 38.484 8.31841 41.0157 10.62C43.5475 12.9216 44.9698 16.0432 44.9698 19.2981V36.5508C44.9698 37.4918 44.1298 38.2554 43.0948 38.2554H39.3448C38.3098 38.2554 37.4698 37.4918 37.4698 36.5508V32.1613C37.4698 31.2572 37.0747 30.39 36.3714 29.7507C35.6682 29.1114 34.7143 28.7522 33.7198 28.7522H26.9173C26.3068 28.7522 25.7055 28.8878 25.1657 29.147C24.6259 29.4063 24.1639 29.7815 23.8198 30.2399L18.7453 37.0022C18.4699 37.3688 18.1002 37.6687 17.6684 37.8759C17.2365 38.0831 16.7556 38.1914 16.2673 38.1913H12.0568C11.7776 38.1913 11.5039 38.1205 11.2666 37.9868C11.0293 37.853 10.8377 37.6618 10.7134 37.4345C10.5892 37.2071 10.5372 36.9528 10.5633 36.7001C10.5895 36.4474 10.6926 36.2063 10.8613 36.004L14.2963 31.8804C14.7897 31.1622 15.0258 30.3226 14.9721 29.4772C14.9184 28.6319 14.5774 27.8226 13.9963 27.1608L13.2823 26.3481C12.9311 25.9483 12.4854 25.6255 11.9783 25.4036C11.4712 25.1817 10.9156 25.0664 10.3528 25.0663H3.02979V14.1845Z" fill="url(#paint12_radial_805_910)"/>
<path d="M3.02979 14.1845C3.02979 12.2858 3.85947 10.4648 5.33632 9.12224C6.81317 7.77965 8.81621 7.02539 10.9048 7.02539H31.4698C35.0502 7.02539 38.484 8.31841 41.0157 10.62C43.5475 12.9216 44.9698 16.0432 44.9698 19.2981V36.5508C44.9698 37.4918 44.1298 38.2554 43.0948 38.2554H39.3448C38.3098 38.2554 37.4698 37.4918 37.4698 36.5508V32.1613C37.4698 31.2572 37.0747 30.39 36.3714 29.7507C35.6682 29.1114 34.7143 28.7522 33.7198 28.7522H26.9173C26.3068 28.7522 25.7055 28.8878 25.1657 29.147C24.6259 29.4063 24.1639 29.7815 23.8198 30.2399L18.7453 37.0022C18.4699 37.3688 18.1002 37.6687 17.6684 37.8759C17.2365 38.0831 16.7556 38.1914 16.2673 38.1913H12.0568C11.7776 38.1913 11.5039 38.1205 11.2666 37.9868C11.0293 37.853 10.8377 37.6618 10.7134 37.4345C10.5892 37.2071 10.5372 36.9528 10.5633 36.7001C10.5895 36.4474 10.6926 36.2063 10.8613 36.004L14.2963 31.8804C14.7897 31.1622 15.0258 30.3226 14.9721 29.4772C14.9184 28.6319 14.5774 27.8226 13.9963 27.1608L13.2823 26.3481C12.9311 25.9483 12.4854 25.6255 11.9783 25.4036C11.4712 25.1817 10.9156 25.0664 10.3528 25.0663H3.02979V14.1845Z" fill="url(#paint13_radial_805_910)"/>
<path d="M3.02979 14.1845C3.02979 12.2858 3.85947 10.4648 5.33632 9.12224C6.81317 7.77965 8.81621 7.02539 10.9048 7.02539H31.4698C35.0502 7.02539 38.484 8.31841 41.0157 10.62C43.5475 12.9216 44.9698 16.0432 44.9698 19.2981V36.5508C44.9698 37.4918 44.1298 38.2554 43.0948 38.2554H39.3448C38.3098 38.2554 37.4698 37.4918 37.4698 36.5508V32.1613C37.4698 31.2572 37.0747 30.39 36.3714 29.7507C35.6682 29.1114 34.7143 28.7522 33.7198 28.7522H26.9173C26.3068 28.7522 25.7055 28.8878 25.1657 29.147C24.6259 29.4063 24.1639 29.7815 23.8198 30.2399L18.7453 37.0022C18.4699 37.3688 18.1002 37.6687 17.6684 37.8759C17.2365 38.0831 16.7556 38.1914 16.2673 38.1913H12.0568C11.7776 38.1913 11.5039 38.1205 11.2666 37.9868C11.0293 37.853 10.8377 37.6618 10.7134 37.4345C10.5892 37.2071 10.5372 36.9528 10.5633 36.7001C10.5895 36.4474 10.6926 36.2063 10.8613 36.004L14.2963 31.8804C14.7897 31.1622 15.0258 30.3226 14.9721 29.4772C14.9184 28.6319 14.5774 27.8226 13.9963 27.1608L13.2823 26.3481C12.9311 25.9483 12.4854 25.6255 11.9783 25.4036C11.4712 25.1817 10.9156 25.0664 10.3528 25.0663H3.02979V14.1845Z" fill="url(#paint14_radial_805_910)"/>
<path d="M3.02979 14.1845C3.02979 12.2858 3.85947 10.4648 5.33632 9.12224C6.81317 7.77965 8.81621 7.02539 10.9048 7.02539H31.4698C35.0502 7.02539 38.484 8.31841 41.0157 10.62C43.5475 12.9216 44.9698 16.0432 44.9698 19.2981V36.5508C44.9698 37.4918 44.1298 38.2554 43.0948 38.2554H39.3448C38.3098 38.2554 37.4698 37.4918 37.4698 36.5508V32.1613C37.4698 31.2572 37.0747 30.39 36.3714 29.7507C35.6682 29.1114 34.7143 28.7522 33.7198 28.7522H26.9173C26.3068 28.7522 25.7055 28.8878 25.1657 29.147C24.6259 29.4063 24.1639 29.7815 23.8198 30.2399L18.7453 37.0022C18.4699 37.3688 18.1002 37.6687 17.6684 37.8759C17.2365 38.0831 16.7556 38.1914 16.2673 38.1913H12.0568C11.7776 38.1913 11.5039 38.1205 11.2666 37.9868C11.0293 37.853 10.8377 37.6618 10.7134 37.4345C10.5892 37.2071 10.5372 36.9528 10.5633 36.7001C10.5895 36.4474 10.6926 36.2063 10.8613 36.004L14.2963 31.8804C14.7897 31.1622 15.0258 30.3226 14.9721 29.4772C14.9184 28.6319 14.5774 27.8226 13.9963 27.1608L13.2823 26.3481C12.9311 25.9483 12.4854 25.6255 11.9783 25.4036C11.4712 25.1817 10.9156 25.0664 10.3528 25.0663H3.02979V14.1845Z" fill="url(#paint15_radial_805_910)"/>
<path d="M3.02979 14.1845C3.02979 12.2858 3.85947 10.4648 5.33632 9.12224C6.81317 7.77965 8.81621 7.02539 10.9048 7.02539H31.4698C35.0502 7.02539 38.484 8.31841 41.0157 10.62C43.5475 12.9216 44.9698 16.0432 44.9698 19.2981V36.5508C44.9698 37.4918 44.1298 38.2554 43.0948 38.2554H39.3448C38.3098 38.2554 37.4698 37.4918 37.4698 36.5508V32.1613C37.4698 31.2572 37.0747 30.39 36.3714 29.7507C35.6682 29.1114 34.7143 28.7522 33.7198 28.7522H26.9173C26.3068 28.7522 25.7055 28.8878 25.1657 29.147C24.6259 29.4063 24.1639 29.7815 23.8198 30.2399L18.7453 37.0022C18.4699 37.3688 18.1002 37.6687 17.6684 37.8759C17.2365 38.0831 16.7556 38.1914 16.2673 38.1913H12.0568C11.7776 38.1913 11.5039 38.1205 11.2666 37.9868C11.0293 37.853 10.8377 37.6618 10.7134 37.4345C10.5892 37.2071 10.5372 36.9528 10.5633 36.7001C10.5895 36.4474 10.6926 36.2063 10.8613 36.004L14.2963 31.8804C14.7897 31.1622 15.0258 30.3226 14.9721 29.4772C14.9184 28.6319 14.5774 27.8226 13.9963 27.1608L13.2823 26.3481C12.9311 25.9483 12.4854 25.6255 11.9783 25.4036C11.4712 25.1817 10.9156 25.0664 10.3528 25.0663H3.02979V14.1845Z" fill="url(#paint16_linear_805_910)"/>
<path d="M3.02979 14.1845C3.02979 12.2858 3.85947 10.4648 5.33632 9.12224C6.81317 7.77965 8.81621 7.02539 10.9048 7.02539H31.4698C35.0502 7.02539 38.484 8.31841 41.0157 10.62C43.5475 12.9216 44.9698 16.0432 44.9698 19.2981V36.5508C44.9698 37.4918 44.1298 38.2554 43.0948 38.2554H39.3448C38.3098 38.2554 37.4698 37.4918 37.4698 36.5508V32.1613C37.4698 31.2572 37.0747 30.39 36.3714 29.7507C35.6682 29.1114 34.7143 28.7522 33.7198 28.7522H26.9173C26.3068 28.7522 25.7055 28.8878 25.1657 29.147C24.6259 29.4063 24.1639 29.7815 23.8198 30.2399L18.7453 37.0022C18.4699 37.3688 18.1002 37.6687 17.6684 37.8759C17.2365 38.0831 16.7556 38.1914 16.2673 38.1913H12.0568C11.7776 38.1913 11.5039 38.1205 11.2666 37.9868C11.0293 37.853 10.8377 37.6618 10.7134 37.4345C10.5892 37.2071 10.5372 36.9528 10.5633 36.7001C10.5895 36.4474 10.6926 36.2063 10.8613 36.004L14.2963 31.8804C14.7897 31.1622 15.0258 30.3226 14.9721 29.4772C14.9184 28.6319 14.5774 27.8226 13.9963 27.1608L13.2823 26.3481C12.9311 25.9483 12.4854 25.6255 11.9783 25.4036C11.4712 25.1817 10.9156 25.0664 10.3528 25.0663H3.02979V14.1845Z" fill="url(#paint17_radial_805_910)"/>
<path d="M3.02979 14.1845C3.02979 12.2858 3.85947 10.4648 5.33632 9.12224C6.81317 7.77965 8.81621 7.02539 10.9048 7.02539H31.4698C35.0502 7.02539 38.484 8.31841 41.0157 10.62C43.5475 12.9216 44.9698 16.0432 44.9698 19.2981V36.5508C44.9698 37.4918 44.1298 38.2554 43.0948 38.2554H39.3448C38.3098 38.2554 37.4698 37.4918 37.4698 36.5508V32.1613C37.4698 31.2572 37.0747 30.39 36.3714 29.7507C35.6682 29.1114 34.7143 28.7522 33.7198 28.7522H26.9173C26.3068 28.7522 25.7055 28.8878 25.1657 29.147C24.6259 29.4063 24.1639 29.7815 23.8198 30.2399L18.7453 37.0022C18.4699 37.3688 18.1002 37.6687 17.6684 37.8759C17.2365 38.0831 16.7556 38.1914 16.2673 38.1913H12.0568C11.7776 38.1913 11.5039 38.1205 11.2666 37.9868C11.0293 37.853 10.8377 37.6618 10.7134 37.4345C10.5892 37.2071 10.5372 36.9528 10.5633 36.7001C10.5895 36.4474 10.6926 36.2063 10.8613 36.004L14.2963 31.8804C14.7897 31.1622 15.0258 30.3226 14.9721 29.4772C14.9184 28.6319 14.5774 27.8226 13.9963 27.1608L13.2823 26.3481C12.9311 25.9483 12.4854 25.6255 11.9783 25.4036C11.4712 25.1817 10.9156 25.0664 10.3528 25.0663H3.02979V14.1845Z" fill="url(#paint18_radial_805_910)"/>
<path d="M3.02979 14.1845C3.02979 12.2858 3.85947 10.4648 5.33632 9.12224C6.81317 7.77965 8.81621 7.02539 10.9048 7.02539H31.4698C35.0502 7.02539 38.484 8.31841 41.0157 10.62C43.5475 12.9216 44.9698 16.0432 44.9698 19.2981V36.5508C44.9698 37.4918 44.1298 38.2554 43.0948 38.2554H39.3448C38.3098 38.2554 37.4698 37.4918 37.4698 36.5508V32.1613C37.4698 31.2572 37.0747 30.39 36.3714 29.7507C35.6682 29.1114 34.7143 28.7522 33.7198 28.7522H26.9173C26.3068 28.7522 25.7055 28.8878 25.1657 29.147C24.6259 29.4063 24.1639 29.7815 23.8198 30.2399L18.7453 37.0022C18.4699 37.3688 18.1002 37.6687 17.6684 37.8759C17.2365 38.0831 16.7556 38.1914 16.2673 38.1913H12.0568C11.7776 38.1913 11.5039 38.1205 11.2666 37.9868C11.0293 37.853 10.8377 37.6618 10.7134 37.4345C10.5892 37.2071 10.5372 36.9528 10.5633 36.7001C10.5895 36.4474 10.6926 36.2063 10.8613 36.004L14.2963 31.8804C14.7897 31.1622 15.0258 30.3226 14.9721 29.4772C14.9184 28.6319 14.5774 27.8226 13.9963 27.1608L13.2823 26.3481C12.9311 25.9483 12.4854 25.6255 11.9783 25.4036C11.4712 25.1817 10.9156 25.0664 10.3528 25.0663H3.02979V14.1845Z" fill="url(#paint19_radial_805_910)"/>
<path d="M3.02979 14.1845C3.02979 12.2858 3.85947 10.4648 5.33632 9.12224C6.81317 7.77965 8.81621 7.02539 10.9048 7.02539H31.4698C35.0502 7.02539 38.484 8.31841 41.0157 10.62C43.5475 12.9216 44.9698 16.0432 44.9698 19.2981V36.5508C44.9698 37.4918 44.1298 38.2554 43.0948 38.2554H39.3448C38.3098 38.2554 37.4698 37.4918 37.4698 36.5508V32.1613C37.4698 31.2572 37.0747 30.39 36.3714 29.7507C35.6682 29.1114 34.7143 28.7522 33.7198 28.7522H26.9173C26.3068 28.7522 25.7055 28.8878 25.1657 29.147C24.6259 29.4063 24.1639 29.7815 23.8198 30.2399L18.7453 37.0022C18.4699 37.3688 18.1002 37.6687 17.6684 37.8759C17.2365 38.0831 16.7556 38.1914 16.2673 38.1913H12.0568C11.7776 38.1913 11.5039 38.1205 11.2666 37.9868C11.0293 37.853 10.8377 37.6618 10.7134 37.4345C10.5892 37.2071 10.5372 36.9528 10.5633 36.7001C10.5895 36.4474 10.6926 36.2063 10.8613 36.004L14.2963 31.8804C14.7897 31.1622 15.0258 30.3226 14.9721 29.4772C14.9184 28.6319 14.5774 27.8226 13.9963 27.1608L13.2823 26.3481C12.9311 25.9483 12.4854 25.6255 11.9783 25.4036C11.4712 25.1817 10.9156 25.0664 10.3528 25.0663H3.02979V14.1845Z" fill="url(#paint20_radial_805_910)"/>
<path d="M3.02979 14.1845C3.02979 12.2858 3.85947 10.4648 5.33632 9.12224C6.81317 7.77965 8.81621 7.02539 10.9048 7.02539H31.4698C35.0502 7.02539 38.484 8.31841 41.0157 10.62C43.5475 12.9216 44.9698 16.0432 44.9698 19.2981V36.5508C44.9698 37.4918 44.1298 38.2554 43.0948 38.2554H39.3448C38.3098 38.2554 37.4698 37.4918 37.4698 36.5508V32.1613C37.4698 31.2572 37.0747 30.39 36.3714 29.7507C35.6682 29.1114 34.7143 28.7522 33.7198 28.7522H26.9173C26.3068 28.7522 25.7055 28.8878 25.1657 29.147C24.6259 29.4063 24.1639 29.7815 23.8198 30.2399L18.7453 37.0022C18.4699 37.3688 18.1002 37.6687 17.6684 37.8759C17.2365 38.0831 16.7556 38.1914 16.2673 38.1913H12.0568C11.7776 38.1913 11.5039 38.1205 11.2666 37.9868C11.0293 37.853 10.8377 37.6618 10.7134 37.4345C10.5892 37.2071 10.5372 36.9528 10.5633 36.7001C10.5895 36.4474 10.6926 36.2063 10.8613 36.004L14.2963 31.8804C14.7897 31.1622 15.0258 30.3226 14.9721 29.4772C14.9184 28.6319 14.5774 27.8226 13.9963 27.1608L13.2823 26.3481C12.9311 25.9483 12.4854 25.6255 11.9783 25.4036C11.4712 25.1817 10.9156 25.0664 10.3528 25.0663H3.02979V14.1845Z" fill="url(#paint21_radial_805_910)"/>
<path d="M3.02979 14.1845C3.02979 12.2858 3.85947 10.4648 5.33632 9.12224C6.81317 7.77965 8.81621 7.02539 10.9048 7.02539H31.4698C35.0502 7.02539 38.484 8.31841 41.0157 10.62C43.5475 12.9216 44.9698 16.0432 44.9698 19.2981V36.5508C44.9698 37.4918 44.1298 38.2554 43.0948 38.2554H39.3448C38.3098 38.2554 37.4698 37.4918 37.4698 36.5508V32.1613C37.4698 31.2572 37.0747 30.39 36.3714 29.7507C35.6682 29.1114 34.7143 28.7522 33.7198 28.7522H26.9173C26.3068 28.7522 25.7055 28.8878 25.1657 29.147C24.6259 29.4063 24.1639 29.7815 23.8198 30.2399L18.7453 37.0022C18.4699 37.3688 18.1002 37.6687 17.6684 37.8759C17.2365 38.0831 16.7556 38.1914 16.2673 38.1913H12.0568C11.7776 38.1913 11.5039 38.1205 11.2666 37.9868C11.0293 37.853 10.8377 37.6618 10.7134 37.4345C10.5892 37.2071 10.5372 36.9528 10.5633 36.7001C10.5895 36.4474 10.6926 36.2063 10.8613 36.004L14.2963 31.8804C14.7897 31.1622 15.0258 30.3226 14.9721 29.4772C14.9184 28.6319 14.5774 27.8226 13.9963 27.1608L13.2823 26.3481C12.9311 25.9483 12.4854 25.6255 11.9783 25.4036C11.4712 25.1817 10.9156 25.0664 10.3528 25.0663H3.02979V14.1845Z" fill="url(#paint22_radial_805_910)"/>
<g filter="url(#filter1_f_805_910)">
<path d="M6.08691 20.8364V25.0992L8.24241 24.8851L6.08691 20.8364Z" fill="url(#paint23_linear_805_910)"/>
</g>
<path d="M10.5506 15.9002C10.5506 15.5206 10.2121 15.2129 9.79457 15.2129C9.37705 15.2129 9.03857 15.5206 9.03857 15.9002V17.242C9.03857 17.6216 9.37705 17.9293 9.79457 17.9293C10.2121 17.9293 10.5506 17.6216 10.5506 17.242V15.9002Z" fill="url(#paint24_linear_805_910)"/>
<path d="M10.5506 15.9002C10.5506 15.5206 10.2121 15.2129 9.79457 15.2129C9.37705 15.2129 9.03857 15.5206 9.03857 15.9002V17.242C9.03857 17.6216 9.37705 17.9293 9.79457 17.9293C10.2121 17.9293 10.5506 17.6216 10.5506 17.242V15.9002Z" fill="url(#paint25_linear_805_910)"/>
<path d="M10.5506 15.9002C10.5506 15.5206 10.2121 15.2129 9.79457 15.2129C9.37705 15.2129 9.03857 15.5206 9.03857 15.9002V17.242C9.03857 17.6216 9.37705 17.9293 9.79457 17.9293C10.2121 17.9293 10.5506 17.6216 10.5506 17.242V15.9002Z" fill="url(#paint26_linear_805_910)"/>
<path d="M10.5506 15.9002C10.5506 15.5206 10.2121 15.2129 9.79457 15.2129C9.37705 15.2129 9.03857 15.5206 9.03857 15.9002V17.242C9.03857 17.6216 9.37705 17.9293 9.79457 17.9293C10.2121 17.9293 10.5506 17.6216 10.5506 17.242V15.9002Z" fill="url(#paint27_radial_805_910)"/>
<g filter="url(#filter2_f_805_910)">
<path d="M15.0869 8.57727C15.0869 8.49071 15.1247 8.40767 15.1919 8.34634C15.259 8.285 15.3502 8.25036 15.4454 8.25H16.1204C22.8344 8.75455 27.6404 12.6955 27.9554 18.6627C27.9554 18.8337 27.9184 19.003 27.8464 19.1609C27.7744 19.3188 27.6688 19.4623 27.5358 19.5831C27.4028 19.7039 27.2448 19.7997 27.071 19.865C26.8972 19.9303 26.711 19.9638 26.5229 19.9636H16.8824C16.4061 19.9629 15.9495 19.7906 15.6127 19.4844C15.2758 19.1781 15.0862 18.763 15.0854 18.33L15.0869 8.57727Z" fill="#796C8C"/>
</g>
<g filter="url(#filter3_f_805_910)">
<path d="M21.2969 10.1523H31.4099C34.9109 10.1796 41.9099 12.146 41.9099 19.7823V36.0928" stroke="url(#paint28_linear_805_910)" stroke-width="1.5" stroke-linecap="square"/>
</g>
<path d="M15.0869 7.41806C15.0869 7.32764 15.1265 7.24093 15.1968 7.177C15.2671 7.11307 15.3625 7.07715 15.4619 7.07715H16.1639C23.1719 7.60624 28.1879 11.7176 28.5164 17.9453C28.5164 18.6953 27.8474 19.3035 27.0224 19.3035H16.9604C15.9254 19.3035 15.0854 18.5399 15.0854 17.599L15.0869 7.41806Z" fill="url(#paint29_linear_805_910)"/>
<path d="M15.0869 7.41806C15.0869 7.32764 15.1265 7.24093 15.1968 7.177C15.2671 7.11307 15.3625 7.07715 15.4619 7.07715H16.1639C23.1719 7.60624 28.1879 11.7176 28.5164 17.9453C28.5164 18.6953 27.8474 19.3035 27.0224 19.3035H16.9604C15.9254 19.3035 15.0854 18.5399 15.0854 17.599L15.0869 7.41806Z" fill="url(#paint30_linear_805_910)"/>
<path d="M15.0869 7.41806C15.0869 7.32764 15.1265 7.24093 15.1968 7.177C15.2671 7.11307 15.3625 7.07715 15.4619 7.07715H16.1639C23.1719 7.60624 28.1879 11.7176 28.5164 17.9453C28.5164 18.6953 27.8474 19.3035 27.0224 19.3035H16.9604C15.9254 19.3035 15.0854 18.5399 15.0854 17.599L15.0869 7.41806Z" fill="url(#paint31_linear_805_910)"/>
<path fill-rule="evenodd" clip-rule="evenodd" d="M5.27979 22.3281C5.87652 22.3281 6.44882 22.5436 6.87078 22.9272C7.29273 23.3108 7.52979 23.8311 7.52979 24.3736V29.4872C7.52979 29.668 7.6088 29.8415 7.74946 29.9693C7.89011 30.0972 8.08087 30.169 8.27979 30.169C8.87652 30.169 9.44882 30.3845 9.87078 30.7681C10.2927 31.1517 10.5298 31.672 10.5298 32.2145C10.5298 32.757 10.2927 33.2772 9.87078 33.6608C9.44882 34.0444 8.87652 34.2599 8.27979 34.2599H7.52979C6.33631 34.2599 5.19172 33.8289 4.3478 33.0617C3.50389 32.2945 3.02979 31.254 3.02979 30.169V24.3736C3.02979 23.8311 3.26684 23.3108 3.68879 22.9272C4.11075 22.5436 4.68305 22.3281 5.27979 22.3281Z" fill="url(#paint32_linear_805_910)"/>
<path fill-rule="evenodd" clip-rule="evenodd" d="M5.27979 22.3281C5.87652 22.3281 6.44882 22.5436 6.87078 22.9272C7.29273 23.3108 7.52979 23.8311 7.52979 24.3736V29.4872C7.52979 29.668 7.6088 29.8415 7.74946 29.9693C7.89011 30.0972 8.08087 30.169 8.27979 30.169C8.87652 30.169 9.44882 30.3845 9.87078 30.7681C10.2927 31.1517 10.5298 31.672 10.5298 32.2145C10.5298 32.757 10.2927 33.2772 9.87078 33.6608C9.44882 34.0444 8.87652 34.2599 8.27979 34.2599H7.52979C6.33631 34.2599 5.19172 33.8289 4.3478 33.0617C3.50389 32.2945 3.02979 31.254 3.02979 30.169V24.3736C3.02979 23.8311 3.26684 23.3108 3.68879 22.9272C4.11075 22.5436 4.68305 22.3281 5.27979 22.3281Z" fill="url(#paint33_linear_805_910)"/>
<path fill-rule="evenodd" clip-rule="evenodd" d="M5.27979 22.3281C5.87652 22.3281 6.44882 22.5436 6.87078 22.9272C7.29273 23.3108 7.52979 23.8311 7.52979 24.3736V29.4872C7.52979 29.668 7.6088 29.8415 7.74946 29.9693C7.89011 30.0972 8.08087 30.169 8.27979 30.169C8.87652 30.169 9.44882 30.3845 9.87078 30.7681C10.2927 31.1517 10.5298 31.672 10.5298 32.2145C10.5298 32.757 10.2927 33.2772 9.87078 33.6608C9.44882 34.0444 8.87652 34.2599 8.27979 34.2599H7.52979C6.33631 34.2599 5.19172 33.8289 4.3478 33.0617C3.50389 32.2945 3.02979 31.254 3.02979 30.169V24.3736C3.02979 23.8311 3.26684 23.3108 3.68879 22.9272C4.11075 22.5436 4.68305 22.3281 5.27979 22.3281Z" fill="url(#paint34_radial_805_910)"/>
<path fill-rule="evenodd" clip-rule="evenodd" d="M5.27979 22.3281C5.87652 22.3281 6.44882 22.5436 6.87078 22.9272C7.29273 23.3108 7.52979 23.8311 7.52979 24.3736V29.4872C7.52979 29.668 7.6088 29.8415 7.74946 29.9693C7.89011 30.0972 8.08087 30.169 8.27979 30.169C8.87652 30.169 9.44882 30.3845 9.87078 30.7681C10.2927 31.1517 10.5298 31.672 10.5298 32.2145C10.5298 32.757 10.2927 33.2772 9.87078 33.6608C9.44882 34.0444 8.87652 34.2599 8.27979 34.2599H7.52979C6.33631 34.2599 5.19172 33.8289 4.3478 33.0617C3.50389 32.2945 3.02979 31.254 3.02979 30.169V24.3736C3.02979 23.8311 3.26684 23.3108 3.68879 22.9272C4.11075 22.5436 4.68305 22.3281 5.27979 22.3281Z" fill="url(#paint35_radial_805_910)" fill-opacity="0.3"/>
<path fill-rule="evenodd" clip-rule="evenodd" d="M5.27979 22.3281C5.87652 22.3281 6.44882 22.5436 6.87078 22.9272C7.29273 23.3108 7.52979 23.8311 7.52979 24.3736V29.4872C7.52979 29.668 7.6088 29.8415 7.74946 29.9693C7.89011 30.0972 8.08087 30.169 8.27979 30.169C8.87652 30.169 9.44882 30.3845 9.87078 30.7681C10.2927 31.1517 10.5298 31.672 10.5298 32.2145C10.5298 32.757 10.2927 33.2772 9.87078 33.6608C9.44882 34.0444 8.87652 34.2599 8.27979 34.2599H7.52979C6.33631 34.2599 5.19172 33.8289 4.3478 33.0617C3.50389 32.2945 3.02979 31.254 3.02979 30.169V24.3736C3.02979 23.8311 3.26684 23.3108 3.68879 22.9272C4.11075 22.5436 4.68305 22.3281 5.27979 22.3281Z" fill="url(#paint36_radial_805_910)"/>
<path fill-rule="evenodd" clip-rule="evenodd" d="M5.27979 22.3281C5.87652 22.3281 6.44882 22.5436 6.87078 22.9272C7.29273 23.3108 7.52979 23.8311 7.52979 24.3736V29.4872C7.52979 29.668 7.6088 29.8415 7.74946 29.9693C7.89011 30.0972 8.08087 30.169 8.27979 30.169C8.87652 30.169 9.44882 30.3845 9.87078 30.7681C10.2927 31.1517 10.5298 31.672 10.5298 32.2145C10.5298 32.757 10.2927 33.2772 9.87078 33.6608C9.44882 34.0444 8.87652 34.2599 8.27979 34.2599H7.52979C6.33631 34.2599 5.19172 33.8289 4.3478 33.0617C3.50389 32.2945 3.02979 31.254 3.02979 30.169V24.3736C3.02979 23.8311 3.26684 23.3108 3.68879 22.9272C4.11075 22.5436 4.68305 22.3281 5.27979 22.3281Z" fill="url(#paint37_radial_805_910)"/>
<path fill-rule="evenodd" clip-rule="evenodd" d="M5.27979 22.3281C5.87652 22.3281 6.44882 22.5436 6.87078 22.9272C7.29273 23.3108 7.52979 23.8311 7.52979 24.3736V29.4872C7.52979 29.668 7.6088 29.8415 7.74946 29.9693C7.89011 30.0972 8.08087 30.169 8.27979 30.169C8.87652 30.169 9.44882 30.3845 9.87078 30.7681C10.2927 31.1517 10.5298 31.672 10.5298 32.2145C10.5298 32.757 10.2927 33.2772 9.87078 33.6608C9.44882 34.0444 8.87652 34.2599 8.27979 34.2599H7.52979C6.33631 34.2599 5.19172 33.8289 4.3478 33.0617C3.50389 32.2945 3.02979 31.254 3.02979 30.169V24.3736C3.02979 23.8311 3.26684 23.3108 3.68879 22.9272C4.11075 22.5436 4.68305 22.3281 5.27979 22.3281Z" fill="url(#paint38_radial_805_910)"/>
<path fill-rule="evenodd" clip-rule="evenodd" d="M5.27979 22.3281C5.87652 22.3281 6.44882 22.5436 6.87078 22.9272C7.29273 23.3108 7.52979 23.8311 7.52979 24.3736V29.4872C7.52979 29.668 7.6088 29.8415 7.74946 29.9693C7.89011 30.0972 8.08087 30.169 8.27979 30.169C8.87652 30.169 9.44882 30.3845 9.87078 30.7681C10.2927 31.1517 10.5298 31.672 10.5298 32.2145C10.5298 32.757 10.2927 33.2772 9.87078 33.6608C9.44882 34.0444 8.87652 34.2599 8.27979 34.2599H7.52979C6.33631 34.2599 5.19172 33.8289 4.3478 33.0617C3.50389 32.2945 3.02979 31.254 3.02979 30.169V24.3736C3.02979 23.8311 3.26684 23.3108 3.68879 22.9272C4.11075 22.5436 4.68305 22.3281 5.27979 22.3281Z" fill="url(#paint39_radial_805_910)"/>
<g filter="url(#filter4_f_805_910)">
<path d="M12.5577 22.7511V21.2156C12.5577 20.688 12.3271 20.1819 11.9167 19.8088C11.5062 19.4357 10.9496 19.2261 10.3692 19.2261C9.78874 19.2261 9.23208 19.4357 8.82166 19.8088C8.41124 20.1819 8.18066 20.688 8.18066 21.2156V22.7511C8.18066 23.2065 8.58866 23.5774 9.09116 23.5774H11.6472C11.7667 23.5776 11.885 23.5564 11.9955 23.5149C12.1059 23.4735 12.2063 23.4126 12.2909 23.3359C12.3755 23.2591 12.4426 23.168 12.4883 23.0676C12.5341 22.9673 12.5577 22.8597 12.5577 22.7511Z" stroke="url(#paint40_linear_805_910)" stroke-width="0.3"/>
<path d="M12.5577 22.7511V21.2156C12.5577 20.688 12.3271 20.1819 11.9167 19.8088C11.5062 19.4357 10.9496 19.2261 10.3692 19.2261C9.78874 19.2261 9.23208 19.4357 8.82166 19.8088C8.41124 20.1819 8.18066 20.688 8.18066 21.2156V22.7511C8.18066 23.2065 8.58866 23.5774 9.09116 23.5774H11.6472C11.7667 23.5776 11.885 23.5564 11.9955 23.5149C12.1059 23.4735 12.2063 23.4126 12.2909 23.3359C12.3755 23.2591 12.4426 23.168 12.4883 23.0676C12.5341 22.9673 12.5577 22.8597 12.5577 22.7511Z" stroke="url(#paint41_linear_805_910)" stroke-width="0.3"/>
</g>
<path fill-rule="evenodd" clip-rule="evenodd" d="M10.6287 20.9671C11.0259 20.9858 11.3987 21.1472 11.6651 21.4157C11.9315 21.6842 12.0696 22.0378 12.0492 22.399C11.9352 24.4076 10.8747 25.7412 9.57421 26.528C8.53135 27.1441 7.31825 27.4797 6.07471 27.4962C5.67688 27.4962 5.29535 27.3526 5.01405 27.0968C4.73274 26.8411 4.57471 26.4942 4.57471 26.1326C4.57471 25.7709 4.73274 25.4241 5.01405 25.1684C5.29535 24.9126 5.67688 24.7689 6.07471 24.7689C6.50971 24.7689 7.27771 24.6408 7.91221 24.2576C8.47471 23.9167 8.99221 23.3494 9.05221 22.2585C9.07276 21.8974 9.25023 21.5585 9.54558 21.3163C9.84094 21.0742 10.23 20.9486 10.6272 20.9671" fill="url(#paint42_linear_805_910)"/>
<path fill-rule="evenodd" clip-rule="evenodd" d="M10.6287 20.9671C11.0259 20.9858 11.3987 21.1472 11.6651 21.4157C11.9315 21.6842 12.0696 22.0378 12.0492 22.399C11.9352 24.4076 10.8747 25.7412 9.57421 26.528C8.53135 27.1441 7.31825 27.4797 6.07471 27.4962C5.67688 27.4962 5.29535 27.3526 5.01405 27.0968C4.73274 26.8411 4.57471 26.4942 4.57471 26.1326C4.57471 25.7709 4.73274 25.4241 5.01405 25.1684C5.29535 24.9126 5.67688 24.7689 6.07471 24.7689C6.50971 24.7689 7.27771 24.6408 7.91221 24.2576C8.47471 23.9167 8.99221 23.3494 9.05221 22.2585C9.07276 21.8974 9.25023 21.5585 9.54558 21.3163C9.84094 21.0742 10.23 20.9486 10.6272 20.9671" fill="url(#paint43_linear_805_910)"/>
<path fill-rule="evenodd" clip-rule="evenodd" d="M10.6287 20.9671C11.0259 20.9858 11.3987 21.1472 11.6651 21.4157C11.9315 21.6842 12.0696 22.0378 12.0492 22.399C11.9352 24.4076 10.8747 25.7412 9.57421 26.528C8.53135 27.1441 7.31825 27.4797 6.07471 27.4962C5.67688 27.4962 5.29535 27.3526 5.01405 27.0968C4.73274 26.8411 4.57471 26.4942 4.57471 26.1326C4.57471 25.7709 4.73274 25.4241 5.01405 25.1684C5.29535 24.9126 5.67688 24.7689 6.07471 24.7689C6.50971 24.7689 7.27771 24.6408 7.91221 24.2576C8.47471 23.9167 8.99221 23.3494 9.05221 22.2585C9.07276 21.8974 9.25023 21.5585 9.54558 21.3163C9.84094 21.0742 10.23 20.9486 10.6272 20.9671" fill="url(#paint44_radial_805_910)"/>
<g filter="url(#filter5_f_805_910)">
<path d="M17.3594 8.22266C20.5784 8.5922 27.0914 11.0536 27.3914 17.9399" stroke="url(#paint45_linear_805_910)" stroke-width="0.5" stroke-linecap="round"/>
</g>
<g filter="url(#filter6_f_805_910)">
<path d="M15.7646 7.79736V17.9401" stroke="url(#paint46_linear_805_910)" stroke-width="0.25" stroke-linecap="round"/>
</g>
<g filter="url(#filter7_f_805_910)">
<path d="M5.92188 26.7178V29.9564C5.92188 30.4989 6.15893 31.0192 6.58088 31.4028C6.78982 31.5927 7.03785 31.7434 7.31084 31.8462C7.58382 31.949 7.8764 32.0019 8.17188 32.0019H8.78088" stroke="url(#paint47_linear_805_910)" stroke-opacity="0.75" stroke-width="0.75" stroke-linecap="round"/>
</g>
<g filter="url(#filter8_f_805_910)">
<path d="M5.92188 25.9936C7.39938 25.9936 9.81288 24.9573 10.0934 22.6909" stroke="#EDE7F5" stroke-width="0.4" stroke-linecap="round"/>
</g>
<path d="M8.40602 21.2152C8.39877 20.9767 8.44417 20.7393 8.53955 20.5171C8.63493 20.2949 8.77834 20.0922 8.96131 19.9212C9.14429 19.7502 9.36311 19.6143 9.60486 19.5215C9.8466 19.4287 10.1064 19.3809 10.3688 19.3809C10.6312 19.3809 10.8909 19.4287 11.1327 19.5215C11.3744 19.6143 11.5933 19.7502 11.7762 19.9212C11.9592 20.0922 12.1026 20.2949 12.198 20.5171C12.2934 20.7393 12.3388 20.9767 12.3315 21.2152V22.7506C12.3315 22.9156 12.2595 23.0737 12.1312 23.1903C12.0029 23.307 11.8289 23.3725 11.6475 23.3725H9.09152C9.00157 23.3726 8.91247 23.3567 8.82931 23.3255C8.74615 23.2944 8.67057 23.2486 8.60689 23.1908C8.54322 23.1331 8.4927 23.0645 8.45823 22.9889C8.42376 22.9134 8.40602 22.8324 8.40602 22.7506V21.2152Z" fill="#ACAAB5"/>
<path d="M8.40602 21.2152C8.39877 20.9767 8.44417 20.7393 8.53955 20.5171C8.63493 20.2949 8.77834 20.0922 8.96131 19.9212C9.14429 19.7502 9.36311 19.6143 9.60486 19.5215C9.8466 19.4287 10.1064 19.3809 10.3688 19.3809C10.6312 19.3809 10.8909 19.4287 11.1327 19.5215C11.3744 19.6143 11.5933 19.7502 11.7762 19.9212C11.9592 20.0922 12.1026 20.2949 12.198 20.5171C12.2934 20.7393 12.3388 20.9767 12.3315 21.2152V22.7506C12.3315 22.9156 12.2595 23.0737 12.1312 23.1903C12.0029 23.307 11.8289 23.3725 11.6475 23.3725H9.09152C9.00157 23.3726 8.91247 23.3567 8.82931 23.3255C8.74615 23.2944 8.67057 23.2486 8.60689 23.1908C8.54322 23.1331 8.4927 23.0645 8.45823 22.9889C8.42376 22.9134 8.40602 22.8324 8.40602 22.7506V21.2152Z" fill="url(#paint48_linear_805_910)"/>
<path d="M8.40602 21.2152C8.39877 20.9767 8.44417 20.7393 8.53955 20.5171C8.63493 20.2949 8.77834 20.0922 8.96131 19.9212C9.14429 19.7502 9.36311 19.6143 9.60486 19.5215C9.8466 19.4287 10.1064 19.3809 10.3688 19.3809C10.6312 19.3809 10.8909 19.4287 11.1327 19.5215C11.3744 19.6143 11.5933 19.7502 11.7762 19.9212C11.9592 20.0922 12.1026 20.2949 12.198 20.5171C12.2934 20.7393 12.3388 20.9767 12.3315 21.2152V22.7506C12.3315 22.9156 12.2595 23.0737 12.1312 23.1903C12.0029 23.307 11.8289 23.3725 11.6475 23.3725H9.09152C9.00157 23.3726 8.91247 23.3567 8.82931 23.3255C8.74615 23.2944 8.67057 23.2486 8.60689 23.1908C8.54322 23.1331 8.4927 23.0645 8.45823 22.9889C8.42376 22.9134 8.40602 22.8324 8.40602 22.7506V21.2152Z" fill="url(#paint49_linear_805_910)"/>
<path d="M8.40602 21.2152C8.39877 20.9767 8.44417 20.7393 8.53955 20.5171C8.63493 20.2949 8.77834 20.0922 8.96131 19.9212C9.14429 19.7502 9.36311 19.6143 9.60486 19.5215C9.8466 19.4287 10.1064 19.3809 10.3688 19.3809C10.6312 19.3809 10.8909 19.4287 11.1327 19.5215C11.3744 19.6143 11.5933 19.7502 11.7762 19.9212C11.9592 20.0922 12.1026 20.2949 12.198 20.5171C12.2934 20.7393 12.3388 20.9767 12.3315 21.2152V22.7506C12.3315 22.9156 12.2595 23.0737 12.1312 23.1903C12.0029 23.307 11.8289 23.3725 11.6475 23.3725H9.09152C9.00157 23.3726 8.91247 23.3567 8.82931 23.3255C8.74615 23.2944 8.67057 23.2486 8.60689 23.1908C8.54322 23.1331 8.4927 23.0645 8.45823 22.9889C8.42376 22.9134 8.40602 22.8324 8.40602 22.7506V21.2152Z" fill="url(#paint50_radial_805_910)"/>
<path d="M8.40602 21.2152C8.39877 20.9767 8.44417 20.7393 8.53955 20.5171C8.63493 20.2949 8.77834 20.0922 8.96131 19.9212C9.14429 19.7502 9.36311 19.6143 9.60486 19.5215C9.8466 19.4287 10.1064 19.3809 10.3688 19.3809C10.6312 19.3809 10.8909 19.4287 11.1327 19.5215C11.3744 19.6143 11.5933 19.7502 11.7762 19.9212C11.9592 20.0922 12.1026 20.2949 12.198 20.5171C12.2934 20.7393 12.3388 20.9767 12.3315 21.2152V22.7506C12.3315 22.9156 12.2595 23.0737 12.1312 23.1903C12.0029 23.307 11.8289 23.3725 11.6475 23.3725H9.09152C9.00157 23.3726 8.91247 23.3567 8.82931 23.3255C8.74615 23.2944 8.67057 23.2486 8.60689 23.1908C8.54322 23.1331 8.4927 23.0645 8.45823 22.9889C8.42376 22.9134 8.40602 22.8324 8.40602 22.7506V21.2152Z" fill="url(#paint51_linear_805_910)"/>
<path d="M8.40602 21.2152C8.39877 20.9767 8.44417 20.7393 8.53955 20.5171C8.63493 20.2949 8.77834 20.0922 8.96131 19.9212C9.14429 19.7502 9.36311 19.6143 9.60486 19.5215C9.8466 19.4287 10.1064 19.3809 10.3688 19.3809C10.6312 19.3809 10.8909 19.4287 11.1327 19.5215C11.3744 19.6143 11.5933 19.7502 11.7762 19.9212C11.9592 20.0922 12.1026 20.2949 12.198 20.5171C12.2934 20.7393 12.3388 20.9767 12.3315 21.2152V22.7506C12.3315 22.9156 12.2595 23.0737 12.1312 23.1903C12.0029 23.307 11.8289 23.3725 11.6475 23.3725H9.09152C9.00157 23.3726 8.91247 23.3567 8.82931 23.3255C8.74615 23.2944 8.67057 23.2486 8.60689 23.1908C8.54322 23.1331 8.4927 23.0645 8.45823 22.9889C8.42376 22.9134 8.40602 22.8324 8.40602 22.7506V21.2152Z" fill="url(#paint52_linear_805_910)" fill-opacity="0.5"/>
<g filter="url(#filter9_f_805_910)">
<path d="M10.6211 20.6877C10.6211 20.6031 10.6581 20.522 10.7239 20.4621C10.7897 20.4023 10.879 20.3687 10.9721 20.3687C11.0652 20.3687 11.1545 20.4023 11.2203 20.4621C11.2861 20.522 11.3231 20.6031 11.3231 20.6877V22.6909H10.6211V20.6877Z" fill="#B8B4C2"/>
</g>
<g filter="url(#filter10_f_805_910)">
<path d="M10.0585 15.7214C10.0585 15.6431 9.98904 15.5796 9.9033 15.5796C9.81755 15.5796 9.74805 15.6431 9.74805 15.7214V17.2432C9.74805 17.3216 9.81755 17.385 9.9033 17.385C9.98904 17.385 10.0585 17.3216 10.0585 17.2432V15.7214Z" fill="#87747C"/>
</g>
<g filter="url(#filter11_f_805_910)">
<path d="M24.9883 29.8716H26.9218V37.2434H24.9883V29.8716Z" fill="url(#paint53_linear_805_910)"/>
</g>
<g filter="url(#filter12_f_805_910)">
<path d="M18.6255 29.5307L13.3755 36.6039H16.704L22.8435 28.5503L18.6255 29.5307Z" fill="url(#paint54_linear_805_910)"/>
</g>
</g>
<defs>
<filter id="filter0_i_805_910" x="32.3833" y="28.6578" width="11.1386" height="9.59756" filterUnits="userSpaceOnUse" color-interpolation-filters="sRGB">
<feFlood flood-opacity="0" result="BackgroundImageFix"/>
<feBlend mode="normal" in="SourceGraphic" in2="BackgroundImageFix" result="shape"/>
<feColorMatrix in="SourceAlpha" type="matrix" values="0 0 0 0 0 0 0 0 0 0 0 0 0 0 0 0 0 0 127 0" result="hardAlpha"/>
<feOffset dx="0.1" dy="-0.1"/>
<feGaussianBlur stdDeviation="0.25"/>
<feComposite in2="hardAlpha" operator="arithmetic" k2="-1" k3="1"/>
<feColorMatrix type="matrix" values="0 0 0 0 0.631373 0 0 0 0 0.607843 0 0 0 0 0.67451 0 0 0 1 0"/>
<feBlend mode="normal" in2="shape" result="effect1_innerShadow_805_910"/>
</filter>
<filter id="filter1_f_805_910" x="5.08691" y="19.8364" width="4.15527" height="6.2627" filterUnits="userSpaceOnUse" color-interpolation-filters="sRGB">
<feFlood flood-opacity="0" result="BackgroundImageFix"/>
<feBlend mode="normal" in="SourceGraphic" in2="BackgroundImageFix" result="shape"/>
<feGaussianBlur stdDeviation="0.5" result="effect1_foregroundBlur_805_910"/>
</filter>
<filter id="filter2_f_805_910" x="13.8854" y="7.05" width="15.2701" height="14.1139" filterUnits="userSpaceOnUse" color-interpolation-filters="sRGB">
<feFlood flood-opacity="0" result="BackgroundImageFix"/>
<feBlend mode="normal" in="SourceGraphic" in2="BackgroundImageFix" result="shape"/>
<feGaussianBlur stdDeviation="0.6" result="effect1_foregroundBlur_805_910"/>
</filter>
<filter id="filter3_f_805_910" x="18.5469" y="7.40234" width="26.1128" height="31.4404" filterUnits="userSpaceOnUse" color-interpolation-filters="sRGB">
<feFlood flood-opacity="0" result="BackgroundImageFix"/>
<feBlend mode="normal" in="SourceGraphic" in2="BackgroundImageFix" result="shape"/>
<feGaussianBlur stdDeviation="1" result="effect1_foregroundBlur_805_910"/>
</filter>
<filter id="filter4_f_805_910" x="7.63076" y="18.6762" width="5.47676" height="5.45137" filterUnits="userSpaceOnUse" color-interpolation-filters="sRGB">
<feFlood flood-opacity="0" result="BackgroundImageFix"/>
<feBlend mode="normal" in="SourceGraphic" in2="BackgroundImageFix" result="shape"/>
<feGaussianBlur stdDeviation="0.2" result="effect1_foregroundBlur_805_910"/>
</filter>
<filter id="filter5_f_805_910" x="16.3594" y="7.22266" width="12.0322" height="11.7173" filterUnits="userSpaceOnUse" color-interpolation-filters="sRGB">
<feFlood flood-opacity="0" result="BackgroundImageFix"/>
<feBlend mode="normal" in="SourceGraphic" in2="BackgroundImageFix" result="shape"/>
<feGaussianBlur stdDeviation="0.375" result="effect1_foregroundBlur_805_910"/>
</filter>
<filter id="filter6_f_805_910" x="15.1396" y="7.17236" width="1.25" height="11.3926" filterUnits="userSpaceOnUse" color-interpolation-filters="sRGB">
<feFlood flood-opacity="0" result="BackgroundImageFix"/>
<feBlend mode="normal" in="SourceGraphic" in2="BackgroundImageFix" result="shape"/>
<feGaussianBlur stdDeviation="0.25" result="effect1_foregroundBlur_805_910"/>
</filter>
<filter id="filter7_f_805_910" x="4.74687" y="25.5428" width="5.20889" height="7.63418" filterUnits="userSpaceOnUse" color-interpolation-filters="sRGB">
<feFlood flood-opacity="0" result="BackgroundImageFix"/>
<feBlend mode="normal" in="SourceGraphic" in2="BackgroundImageFix" result="shape"/>
<feGaussianBlur stdDeviation="0.4" result="effect1_foregroundBlur_805_910"/>
</filter>
<filter id="filter8_f_805_910" x="5.12168" y="21.8907" width="5.77178" height="4.90313" filterUnits="userSpaceOnUse" color-interpolation-filters="sRGB">
<feFlood flood-opacity="0" result="BackgroundImageFix"/>
<feBlend mode="normal" in="SourceGraphic" in2="BackgroundImageFix" result="shape"/>
<feGaussianBlur stdDeviation="0.3" result="effect1_foregroundBlur_805_910"/>
</filter>
<filter id="filter9_f_805_910" x="10.0211" y="19.7687" width="1.90215" height="3.52227" filterUnits="userSpaceOnUse" color-interpolation-filters="sRGB">
<feFlood flood-opacity="0" result="BackgroundImageFix"/>
<feBlend mode="normal" in="SourceGraphic" in2="BackgroundImageFix" result="shape"/>
<feGaussianBlur stdDeviation="0.3" result="effect1_foregroundBlur_805_910"/>
</filter>
<filter id="filter10_f_805_910" x="9.24805" y="15.0796" width="1.31055" height="2.80566" filterUnits="userSpaceOnUse" color-interpolation-filters="sRGB">
<feFlood flood-opacity="0" result="BackgroundImageFix"/>
<feBlend mode="normal" in="SourceGraphic" in2="BackgroundImageFix" result="shape"/>
<feGaussianBlur stdDeviation="0.25" result="effect1_foregroundBlur_805_910"/>
</filter>
<filter id="filter11_f_805_910" x="24.1883" y="29.0716" width="3.53359" height="8.97158" filterUnits="userSpaceOnUse" color-interpolation-filters="sRGB">
<feFlood flood-opacity="0" result="BackgroundImageFix"/>
<feBlend mode="normal" in="SourceGraphic" in2="BackgroundImageFix" result="shape"/>
<feGaussianBlur stdDeviation="0.4" result="effect1_foregroundBlur_805_910"/>
</filter>
<filter id="filter12_f_805_910" x="12.3755" y="27.5503" width="11.4678" height="10.0537" filterUnits="userSpaceOnUse" color-interpolation-filters="sRGB">
<feFlood flood-opacity="0" result="BackgroundImageFix"/>
<feBlend mode="normal" in="SourceGraphic" in2="BackgroundImageFix" result="shape"/>
<feGaussianBlur stdDeviation="0.5" result="effect1_foregroundBlur_805_910"/>
</filter>
<linearGradient id="paint0_linear_805_910" x1="38.2603" y1="39.3642" x2="38.2603" y2="35.6142" gradientUnits="userSpaceOnUse">
<stop stop-color="#7249A0"/>
<stop offset="0.659" stop-color="#7F56AE" stop-opacity="0"/>
</linearGradient>
<linearGradient id="paint1_linear_805_910" x1="37.9033" y1="29.9987" x2="37.9033" y2="34.1755" gradientUnits="userSpaceOnUse">
<stop stop-color="#685A7B"/>
<stop offset="1" stop-color="#786A8C" stop-opacity="0"/>
</linearGradient>
<radialGradient id="paint2_radial_805_910" cx="0" cy="0" r="1" gradientUnits="userSpaceOnUse" gradientTransform="translate(23.5466 36.0083) rotate(67.0302) scale(10.0898 12.4803)">
<stop stop-color="#9F99AC"/>
<stop offset="1" stop-color="#685A7C"/>
</radialGradient>
<linearGradient id="paint3_linear_805_910" x1="24.9956" y1="39.8428" x2="24.9956" y2="36.9588" gradientUnits="userSpaceOnUse">
<stop stop-color="#7249A0"/>
<stop offset="1" stop-color="#7F56AE" stop-opacity="0"/>
</linearGradient>
<linearGradient id="paint4_linear_805_910" x1="27.8591" y1="27.7828" x2="26.2368" y2="32.5724" gradientUnits="userSpaceOnUse">
<stop offset="0.153" stop-color="#6B5B7F"/>
<stop offset="1" stop-color="#6B5B7F" stop-opacity="0"/>
</linearGradient>
<linearGradient id="paint5_linear_805_910" x1="20.0786" y1="38.3088" x2="22.8911" y2="38.3088" gradientUnits="userSpaceOnUse">
<stop stop-color="#BCBAC3"/>
<stop offset="1" stop-color="#BCBAC3" stop-opacity="0"/>
</linearGradient>
<linearGradient id="paint6_linear_805_910" x1="47.0788" y1="28.9663" x2="41.4538" y2="28.9663" gradientUnits="userSpaceOnUse">
<stop stop-color="#ACADAF"/>
<stop offset="1" stop-color="#ACADAF" stop-opacity="0"/>
</linearGradient>
<linearGradient id="paint7_linear_805_910" x1="33.2968" y1="5.86903" x2="33.2968" y2="11.0249" gradientUnits="userSpaceOnUse">
<stop stop-color="#ACADAF"/>
<stop offset="1" stop-color="#ACADAF" stop-opacity="0"/>
</linearGradient>
<linearGradient id="paint8_linear_805_910" x1="38.7343" y1="7.82994" x2="36.809" y2="12.1092" gradientUnits="userSpaceOnUse">
<stop stop-color="#ACADAF"/>
<stop offset="1" stop-color="#ACADAF" stop-opacity="0"/>
</linearGradient>
<radialGradient id="paint9_radial_805_910" cx="0" cy="0" r="1" gradientUnits="userSpaceOnUse" gradientTransform="translate(16.9843 9.74721) rotate(-155.598) scale(6.58854 4.52495)">
<stop stop-color="#ACADAF"/>
<stop offset="1" stop-color="#ACADAF" stop-opacity="0"/>
</radialGradient>
<linearGradient id="paint10_linear_805_910" x1="1.23429" y1="16.6077" x2="4.70379" y2="16.6077" gradientUnits="userSpaceOnUse">
<stop stop-color="#CBCCCF"/>
<stop offset="1" stop-color="#CBCCCF" stop-opacity="0"/>
</linearGradient>
<radialGradient id="paint11_radial_805_910" cx="0" cy="0" r="1" gradientUnits="userSpaceOnUse" gradientTransform="translate(2.68779 9.49085) rotate(39.144) scale(5.19784 6.58284)">
<stop stop-color="#CBCCCF"/>
<stop offset="0.81" stop-color="#CBCCCF" stop-opacity="0"/>
</radialGradient>
<radialGradient id="paint12_radial_805_910" cx="0" cy="0" r="1" gradientUnits="userSpaceOnUse" gradientTransform="translate(9.25028 27.8999) rotate(-51.8673) scale(6.14893 3.78342)">
<stop stop-color="#7F56AE"/>
<stop offset="1" stop-color="#7F56AE" stop-opacity="0"/>
</radialGradient>
<radialGradient id="paint13_radial_805_910" cx="0" cy="0" r="1" gradientUnits="userSpaceOnUse" gradientTransform="translate(19.1398 16.2681) rotate(144.695) scale(11.0282 9.28808)">
<stop stop-color="#918B9E"/>
<stop offset="1" stop-color="#918B9E" stop-opacity="0"/>
</radialGradient>
<radialGradient id="paint14_radial_805_910" cx="0" cy="0" r="1" gradientUnits="userSpaceOnUse" gradientTransform="translate(10.6093 26.4095) rotate(-60.2551) scale(7.55837 5.42791)">
<stop stop-color="#918B9E"/>
<stop offset="1" stop-color="#918B9E" stop-opacity="0"/>
</radialGradient>
<radialGradient id="paint15_radial_805_910" cx="0" cy="0" r="1" gradientUnits="userSpaceOnUse" gradientTransform="translate(10.1398 27.9954) rotate(-34.2207) scale(9.52378 6.29676)">
<stop stop-color="#918B9E"/>
<stop offset="1" stop-color="#918B9E" stop-opacity="0"/>
</radialGradient>
<linearGradient id="paint16_linear_805_910" x1="25.3573" y1="39.8427" x2="25.3573" y2="34.6445" gradientUnits="userSpaceOnUse">
<stop stop-color="#7249A0"/>
<stop offset="0.574" stop-color="#7F56AE" stop-opacity="0"/>
</linearGradient>
<radialGradient id="paint17_radial_805_910" cx="0" cy="0" r="1" gradientUnits="userSpaceOnUse" gradientTransform="translate(26.8277 38.2542) rotate(-128.35) scale(9.82146 13.5828)">
<stop stop-color="#7249A0"/>
<stop offset="1" stop-color="#7F56AE" stop-opacity="0"/>
</radialGradient>
<radialGradient id="paint18_radial_805_910" cx="0" cy="0" r="1" gradientUnits="userSpaceOnUse" gradientTransform="translate(30.9538 31.5763) rotate(-90) scale(7.5 9.5625)">
<stop stop-color="#918B9E"/>
<stop offset="1" stop-color="#918B9E" stop-opacity="0"/>
</radialGradient>
<radialGradient id="paint19_radial_805_910" cx="0" cy="0" r="1" gradientUnits="userSpaceOnUse" gradientTransform="translate(23.5003 35.8363) rotate(-144.692) scale(4.9399 12.6482)">
<stop offset="0.338" stop-color="#918B9E"/>
<stop offset="1" stop-color="#918B9E" stop-opacity="0"/>
</radialGradient>
<radialGradient id="paint20_radial_805_910" cx="0" cy="0" r="1" gradientUnits="userSpaceOnUse" gradientTransform="translate(30.5788 32.599) rotate(-137.391) scale(8.93827 5.96095)">
<stop offset="0.12" stop-color="#7249A0"/>
<stop offset="0.886" stop-color="#7F56AE" stop-opacity="0"/>
</radialGradient>
<radialGradient id="paint21_radial_805_910" cx="0" cy="0" r="1" gradientUnits="userSpaceOnUse" gradientTransform="translate(31.3753 30.8508) rotate(-90) scale(3.87784 6.70313)">
<stop offset="0.12" stop-color="#7249A0"/>
<stop offset="1" stop-color="#7F56AE" stop-opacity="0"/>
</radialGradient>
<radialGradient id="paint22_radial_805_910" cx="0" cy="0" r="1" gradientUnits="userSpaceOnUse" gradientTransform="translate(9.10929 37.3499) rotate(-30.915) scale(3.44215 2.30813)">
<stop stop-color="#C9C7D0"/>
<stop offset="0.781" stop-color="#C9C7D0" stop-opacity="0"/>
</radialGradient>
<linearGradient id="paint23_linear_805_910" x1="6.81291" y1="24.7146" x2="9.54328" y2="22.5742" gradientUnits="userSpaceOnUse">
<stop stop-color="#AEACB7"/>
<stop offset="1" stop-color="#C0B8D0" stop-opacity="0"/>
</linearGradient>
<linearGradient id="paint24_linear_805_910" x1="10.5506" y1="16.5711" x2="9.67607" y2="16.5711" gradientUnits="userSpaceOnUse">
<stop offset="0.225" stop-color="#594C4F"/>
<stop offset="1" stop-color="#392833"/>
</linearGradient>
<linearGradient id="paint25_linear_805_910" x1="10.7876" y1="17.9688" x2="10.7876" y2="16.6924" gradientUnits="userSpaceOnUse">
<stop stop-color="#552D52"/>
<stop offset="1" stop-color="#552D52" stop-opacity="0"/>
</linearGradient>
<linearGradient id="paint26_linear_805_910" x1="8.53907" y1="17.2106" x2="9.58007" y2="17.2106" gradientUnits="userSpaceOnUse">
<stop stop-color="#594C4F"/>
<stop offset="1" stop-color="#594C4F" stop-opacity="0"/>
</linearGradient>
<radialGradient id="paint27_radial_805_910" cx="0" cy="0" r="1" gradientUnits="userSpaceOnUse" gradientTransform="translate(10.0903 16.7334) rotate(-111.493) scale(1.59155 1.67735)">
<stop offset="0.814" stop-color="#594C4F" stop-opacity="0"/>
<stop offset="1" stop-color="#594C4F"/>
</radialGradient>
<linearGradient id="paint28_linear_805_910" x1="39.4844" y1="38.8201" x2="18.8068" y2="0.107287" gradientUnits="userSpaceOnUse">
<stop stop-color="#CDCCD5"/>
<stop offset="1" stop-color="#CDCCD5" stop-opacity="0"/>
</linearGradient>
<linearGradient id="paint29_linear_805_910" x1="21.8009" y1="8.18033" x2="21.8009" y2="19.3035" gradientUnits="userSpaceOnUse">
<stop stop-color="#E5E0EA"/>
<stop offset="1" stop-color="#DACEE6"/>
</linearGradient>
<linearGradient id="paint30_linear_805_910" x1="21.8009" y1="26.1217" x2="21.8009" y2="17.3426" gradientUnits="userSpaceOnUse">
<stop stop-color="#BA9CDC"/>
<stop offset="1" stop-color="#BA9CDC" stop-opacity="0"/>
</linearGradient>
<linearGradient id="paint31_linear_805_910" x1="14.4299" y1="14.914" x2="15.6134" y2="14.914" gradientUnits="userSpaceOnUse">
<stop stop-color="#B3AEBB"/>
<stop offset="1" stop-color="#B3AEBB" stop-opacity="0"/>
</linearGradient>
<linearGradient id="paint32_linear_805_910" x1="8.03079" y1="34.2599" x2="8.03079" y2="22.5422" gradientUnits="userSpaceOnUse">
<stop stop-color="#A79FB8"/>
<stop offset="1" stop-color="#B0ACBC"/>
</linearGradient>
<linearGradient id="paint33_linear_805_910" x1="1.65579" y1="25.9895" x2="4.65579" y2="25.9895" gradientUnits="userSpaceOnUse">
<stop stop-color="#CBCCCF"/>
<stop offset="1" stop-color="#CBCCCF" stop-opacity="0"/>
</linearGradient>
<radialGradient id="paint34_radial_805_910" cx="0" cy="0" r="1" gradientUnits="userSpaceOnUse" gradientTransform="translate(8.00829 38.3304) rotate(-99.2397) scale(6.13068 6.50593)">
<stop stop-color="#7F56AE"/>
<stop offset="1" stop-color="#7F56AE" stop-opacity="0"/>
</radialGradient>
<radialGradient id="paint35_radial_805_910" cx="0" cy="0" r="1" gradientUnits="userSpaceOnUse" gradientTransform="translate(6.13329 26.8459) rotate(144.737) scale(1.55004 1.71847)">
<stop stop-color="#7F56AE"/>
<stop offset="1" stop-color="#7F56AE" stop-opacity="0"/>
</radialGradient>
<radialGradient id="paint36_radial_805_910" cx="0" cy="0" r="1" gradientUnits="userSpaceOnUse" gradientTransform="translate(8.82879 29.104) rotate(153.129) scale(3.20551 3.38994)">
<stop stop-color="#85828E"/>
<stop offset="0.959" stop-color="#85828E" stop-opacity="0"/>
</radialGradient>
<radialGradient id="paint37_radial_805_910" cx="0" cy="0" r="1" gradientUnits="userSpaceOnUse" gradientTransform="translate(11.2198 32.2145) rotate(180) scale(2.625 2.66185)">
<stop stop-color="#85828E"/>
<stop offset="1" stop-color="#85828E" stop-opacity="0"/>
</radialGradient>
<radialGradient id="paint38_radial_805_910" cx="0" cy="0" r="1" gradientUnits="userSpaceOnUse" gradientTransform="translate(8.82925 26.2914) rotate(148.621) scale(4.33752 2.58267)">
<stop stop-color="#85828E"/>
<stop offset="1" stop-color="#85828E" stop-opacity="0"/>
</radialGradient>
<radialGradient id="paint39_radial_805_910" cx="0" cy="0" r="1" gradientUnits="userSpaceOnUse" gradientTransform="translate(8.54743 25.9507) rotate(-159.419) scale(4.6065 1.42752)">
<stop offset="0.346" stop-color="#6E6380"/>
<stop offset="0.983" stop-color="#6E6380" stop-opacity="0"/>
</radialGradient>
<linearGradient id="paint40_linear_805_910" x1="13.0227" y1="20.1343" x2="10.4686" y2="21.4747" gradientUnits="userSpaceOnUse">
<stop stop-color="#C7C1D7"/>
<stop offset="1" stop-color="#B9B4C5" stop-opacity="0"/>
</linearGradient>
<linearGradient id="paint41_linear_805_910" x1="7.82066" y1="20.6033" x2="8.96955" y2="21.2218" gradientUnits="userSpaceOnUse">
<stop stop-color="#C7C1D7"/>
<stop offset="1" stop-color="#B9B4C5" stop-opacity="0"/>
</linearGradient>
<linearGradient id="paint42_linear_805_910" x1="7.72621" y1="24.4812" x2="9.4588" y2="27.4849" gradientUnits="userSpaceOnUse">
<stop stop-color="#D5D0DB"/>
<stop offset="1" stop-color="#CABADB"/>
</linearGradient>
<linearGradient id="paint43_linear_805_910" x1="4.37521" y1="26.5799" x2="5.20771" y2="26.5799" gradientUnits="userSpaceOnUse">
<stop stop-color="#E8E4ED"/>
<stop offset="1" stop-color="#E8E4ED" stop-opacity="0"/>
</linearGradient>
<radialGradient id="paint44_radial_805_910" cx="0" cy="0" r="1" gradientUnits="userSpaceOnUse" gradientTransform="translate(7.70371 23.9903) rotate(52.1556) scale(3.85836 6.16009)">
<stop offset="0.717" stop-color="#B9A9CB" stop-opacity="0"/>
<stop offset="0.962" stop-color="#B9A9CB"/>
</radialGradient>
<linearGradient id="paint45_linear_805_910" x1="28.0934" y1="18.4936" x2="18.1019" y2="6.76096" gradientUnits="userSpaceOnUse">
<stop stop-color="#F9F5FF"/>
<stop offset="1" stop-color="#F9F5FF" stop-opacity="0"/>
</linearGradient>
<linearGradient id="paint46_linear_805_910" x1="-nan" y1="-nan" x2="-nan" y2="-nan" gradientUnits="userSpaceOnUse">
<stop stop-color="#F9F5FF" stop-opacity="0"/>
<stop offset="1" stop-color="#F9F5FF"/>
</linearGradient>
<linearGradient id="paint47_linear_805_910" x1="7.69938" y1="32.37" x2="6.39808" y2="27.3531" gradientUnits="userSpaceOnUse">
<stop stop-color="#CDCCD5"/>
<stop offset="1" stop-color="#CDCCD5" stop-opacity="0"/>
</linearGradient>
<linearGradient id="paint48_linear_805_910" x1="10.3695" y1="23.3725" x2="10.3695" y2="22.797" gradientUnits="userSpaceOnUse">
<stop stop-color="#887D99"/>
<stop offset="1" stop-color="#887D99" stop-opacity="0"/>
</linearGradient>
<linearGradient id="paint49_linear_805_910" x1="12.813" y1="23.3725" x2="10.9845" y2="23.3725" gradientUnits="userSpaceOnUse">
<stop stop-color="#8A8696"/>
<stop offset="1" stop-color="#928E9E" stop-opacity="0"/>
</linearGradient>
<radialGradient id="paint50_radial_805_910" cx="0" cy="0" r="1" gradientUnits="userSpaceOnUse" gradientTransform="translate(10.3695 22.2106) rotate(-78.4817) scale(2.72895 2.40429)">
<stop offset="0.713" stop-color="#A9A7B3" stop-opacity="0"/>
<stop offset="1" stop-color="#A9A7B3"/>
</radialGradient>
<linearGradient id="paint51_linear_805_910" x1="8.03102" y1="23.2238" x2="9.71852" y2="23.2238" gradientUnits="userSpaceOnUse">
<stop stop-color="#BAB9C2"/>
<stop offset="1" stop-color="#ACABB3" stop-opacity="0"/>
</linearGradient>
<linearGradient id="paint52_linear_805_910" x1="10.3695" y1="19.2597" x2="10.3695" y2="20.7938" gradientUnits="userSpaceOnUse">
<stop stop-color="#9A97A7"/>
<stop offset="1" stop-color="#A9A7B2" stop-opacity="0"/>
</linearGradient>
<linearGradient id="paint53_linear_805_910" x1="26.9218" y1="37.2434" x2="26.9218" y2="29.3166" gradientUnits="userSpaceOnUse">
<stop stop-color="#A99FBA"/>
<stop offset="1" stop-color="#A99FBA" stop-opacity="0"/>
</linearGradient>
<linearGradient id="paint54_linear_805_910" x1="15.297" y1="36.6039" x2="20.6887" y2="27.4826" gradientUnits="userSpaceOnUse">
<stop stop-color="#C0B8D0"/>
<stop offset="1" stop-color="#C0B8D0" stop-opacity="0"/>
</linearGradient>
</defs>
</svg>
