<svg width="30" height="30" viewBox="0 0 30 30" fill="none" xmlns="http://www.w3.org/2000/svg">
<path fill-rule="evenodd" clip-rule="evenodd" d="M22.5001 2.5C23.1308 2.4998 23.7383 2.73801 24.2008 3.16687C24.6632 3.59573 24.9465 4.18356 24.9938 4.8125L25.0001 5V25C25.0003 25.6307 24.7621 26.2382 24.3332 26.7007C23.9043 27.1632 23.3165 27.4464 22.6876 27.4938L22.5001 27.5H7.50008C6.86936 27.5002 6.26187 27.262 5.7994 26.8331C5.33692 26.4043 5.05363 25.8164 5.00633 25.1875L5.00008 25V23.75C4.68148 23.7496 4.37504 23.6277 4.14337 23.4089C3.9117 23.1902 3.77229 22.8913 3.75361 22.5733C3.73494 22.2552 3.83842 21.942 4.04291 21.6977C4.2474 21.4534 4.53746 21.2964 4.85383 21.2587L5.00008 21.25V18.75C4.68148 18.7496 4.37504 18.6277 4.14337 18.4089C3.9117 18.1902 3.77229 17.8913 3.75361 17.5733C3.73494 17.2552 3.83842 16.942 4.04291 16.6977C4.2474 16.4534 4.53746 16.2964 4.85383 16.2587L5.00008 16.25V13.75C4.68148 13.7496 4.37504 13.6277 4.14337 13.4089C3.9117 13.1902 3.77229 12.8913 3.75361 12.5733C3.73494 12.2552 3.83842 11.942 4.04291 11.6977C4.2474 11.4534 4.53746 11.2964 4.85383 11.2587L5.00008 11.25V8.75C4.68148 8.74965 4.37504 8.62765 4.14337 8.40894C3.9117 8.19023 3.77229 7.89131 3.75361 7.57326C3.73494 7.2552 3.83842 6.94203 4.04291 6.69771C4.2474 6.45339 4.53746 6.29638 4.85383 6.25875L5.00008 6.25V5C4.99988 4.36928 5.23809 3.76179 5.66695 3.29932C6.09581 2.83684 6.68364 2.55355 7.31258 2.50625L7.50008 2.5H22.5001ZM22.5001 5H7.50008V25H22.5001V5ZM19.3751 7.5C19.8412 7.50002 20.2906 7.67365 20.6356 7.98702C20.9806 8.3004 21.1966 8.73105 21.2413 9.195L21.2501 9.375V11.875C21.2501 12.3411 21.0764 12.7905 20.7631 13.1355C20.4497 13.4806 20.019 13.6965 19.5551 13.7413L19.3751 13.75H10.6251C10.159 13.75 9.70959 13.5764 9.36456 13.263C9.01952 12.9496 8.80358 12.519 8.75883 12.055L8.75008 11.875V9.375C8.7501 8.9089 8.92373 8.45951 9.2371 8.11448C9.55048 7.76944 9.98113 7.5535 10.4451 7.50875L10.6251 7.5H19.3751ZM18.7501 10H11.2501V11.25H18.7501V10Z" fill="black"/>
</svg>
