<svg width="23" height="22" viewBox="0 0 23 22" fill="none" xmlns="http://www.w3.org/2000/svg">
<path d="M11.5 8.84531C12.0107 8.84531 12.5164 8.74777 12.9882 8.55826C13.46 8.36874 13.8887 8.09097 14.2499 7.7408C14.611 7.39062 14.8974 6.97491 15.0929 6.51738C15.2883 6.05986 15.3889 5.56949 15.3889 5.07427C15.3889 4.57905 15.2883 4.08867 15.0929 3.63115C14.8974 3.17363 14.611 2.75791 14.2499 2.40774C13.8887 2.05756 13.46 1.77979 12.9882 1.59028C12.5164 1.40076 12.0107 1.30322 11.5 1.30322C10.4686 1.30322 9.47945 1.70053 8.75014 2.40774C8.02083 3.11494 7.61111 4.07412 7.61111 5.07427C7.61111 6.07441 8.02083 7.03359 8.75014 7.7408C9.47945 8.448 10.4686 8.84531 11.5 8.84531ZM1.5 20.0507V20.6972H21.5V20.0507C21.5 17.6372 21.5 16.4305 21.0156 15.5082C20.5895 14.6973 19.9096 14.038 19.0733 13.6248C18.1222 13.1551 16.8778 13.1551 14.3889 13.1551H8.61111C6.12222 13.1551 4.87778 13.1551 3.92667 13.6248C3.09043 14.038 2.41054 14.6973 1.98444 15.5082C1.5 16.4305 1.5 17.6372 1.5 20.0507Z" stroke="black" stroke-width="2.5" stroke-linecap="round" stroke-linejoin="round"/>
</svg>
